<?xml version="1.0" encoding="UTF-8" standalone="no"?>
<svg width="1656px" height="1656px" viewBox="0 0 1656 1656" version="1.1" xmlns="http://www.w3.org/2000/svg" xmlns:xlink="http://www.w3.org/1999/xlink" xmlns:sketch="http://www.bohemiancoding.com/sketch/ns">
    <!-- Generator: Sketch 3.3.3 (12081) - http://www.bohemiancoding.com/sketch -->
    <title>asanocorp-0-4-0-blue</title>
    <desc>Created with Sketch.</desc>
    <defs></defs>
    <g id="Page-3" stroke="none" stroke-width="1" fill="none" fill-rule="evenodd" sketch:type="MSPage">
        <g id="Artboard" sketch:type="MSArtboardGroup">
            <g id="asanocorp-0-4-0-blue" sketch:type="MSLayerGroup">
                <rect id="background" fill="#000000" sketch:type="MSShapeGroup" x="0" y="0" width="1656" height="1656"></rect>
                <g id="asano-blue" transform="translate(211.000000, 152.000000)" sketch:type="MSShapeGroup">
                    <path d="M52,1504 L62,1504 L82,1489 L103,1474 L102,1474 L101,1473 L100,1472 L99,1470 L96,1467 L94,1463 L96,1463 L98,1462 L95,1461 L92,1460 L89,1461 L87,1461 L83,1464 L80,1466 L78,1467 L77,1468 L74,1472 L72,1475 L70,1477 L69,1478 L66,1481 L63,1483 L61,1484 L59,1485 L57,1490 L56,1494 L54,1494 L53,1494 L52,1499 L52,1504" id="Shape" fill="#172A32"></path>
                    <path d="M62,1504 L130,1504 L156,1504 L183,1504 L202,1503 L221,1501 L221,1503 L222,1504 L225,1504 L228,1504 L222,1488 L216,1472 L236,1482 L256,1491 L255,1488 L255,1485 L253,1482 L252,1478 L251,1476 L250,1473 L248,1469 L247,1465 L245,1464 L243,1462 L241,1461 L240,1459 L217,1452 L194,1445 L187,1446 L181,1446 L176,1446 L172,1445 L172,1447 L173,1449 L177,1450 L181,1450 L184,1450 L188,1450 L191,1451 L194,1452 L195,1453 L196,1453 L193,1455 L191,1456 L188,1458 L185,1459 L183,1462 L182,1465 L183,1465 L189,1464 L195,1462 L198,1463 L202,1464 L195,1466 L188,1468 L181,1470 L175,1472 L168,1473 L161,1473 L165,1470 L170,1466 L170,1465 L173,1461 L177,1457 L176,1457 L175,1456 L174,1456 L166,1457 L159,1458 L151,1457 L144,1456 L136,1457 L128,1457 L124,1461 L121,1464 L118,1468 L115,1471 L109,1473 L103,1474 L82,1489 L62,1504" id="Shape" fill="#334E5F"></path>
                    <path d="M183,1504 L199,1504 L207,1504 L216,1504 L219,1504 L222,1504 L221,1503 L221,1501 L202,1503 L183,1504" id="Shape" fill="#105D6D"></path>
                    <path d="M228,1504 L244,1504 L252,1504 L261,1504 L258,1498 L256,1491 L236,1482 L216,1472 L222,1488 L228,1504" id="Shape" fill="#306D70"></path>
                    <path d="M269,1504 L283,1504 L283,1503 L283,1502 L282,1500 L282,1498 L280,1494 L279,1489 L278,1487 L278,1485 L276,1485 L275,1484 L272,1482 L270,1480 L269,1479 L268,1478 L266,1483 L264,1487 L265,1492 L267,1497 L267,1499 L267,1500 L268,1502 L269,1504" id="Shape" fill="#77A7B8"></path>
                    <path d="M283,1503 L283,1504 L291,1504 L299,1504 L302,1504 L306,1504 L304,1501 L303,1497 L299,1497 L296,1497 L293,1497 L290,1496 L289,1494 L288,1492 L286,1488 L285,1484 L284,1482 L283,1479 L282,1475 L281,1470 L279,1469 L278,1467 L278,1466 L278,1464 L276,1464 L275,1463 L275,1467 L276,1471 L275,1474 L275,1476 L274,1479 L273,1482 L274,1483 L275,1484 L276,1485 L278,1485 L278,1487 L279,1489 L280,1494 L282,1498 L282,1500 L283,1502 L283,1503" id="Shape" fill="#000000"></path>
                    <path d="M306,1504 L374,1504 L376,1504 L379,1504 L370,1485 L361,1465 L358,1464 L356,1463 L349,1463 L343,1463 L337,1460 L331,1457 L324,1455 L318,1453 L313,1453 L309,1452 L293,1458 L278,1464 L278,1466 L278,1467 L279,1469 L281,1470 L282,1475 L283,1479 L284,1482 L285,1484 L286,1488 L288,1492 L289,1494 L290,1496 L293,1497 L296,1497 L299,1497 L303,1497 L304,1501 L306,1504" id="Shape" fill="#334E5F"></path>
                    <path d="M379,1504 L447,1504 L482,1504 L517,1504 L551,1504 L586,1504 L593,1504 L601,1504 L601,1503 L599,1503 L597,1503 L590,1502 L584,1501 L582,1501 L581,1501 L574,1499 L568,1497 L560,1498 L552,1498 L544,1498 L537,1498 L535,1498 L534,1498 L533,1496 L533,1494 L530,1494 L527,1494 L523,1493 L520,1491 L519,1490 L519,1489 L518,1489 L517,1490 L516,1490 L510,1491 L505,1491 L503,1491 L501,1490 L494,1489 L487,1487 L480,1485 L473,1483 L464,1483 L456,1483 L449,1482 L442,1480 L434,1480 L426,1480 L419,1479 L412,1477 L403,1477 L394,1477 L387,1475 L381,1473 L375,1470 L370,1467 L365,1466 L361,1465 L370,1485 L379,1504" id="Shape" fill="#527A94"></path>
                    <path d="M601,1503 L601,1504 L609,1504 L617,1504 L625,1504 L634,1504 L643,1504 L652,1504 L660,1504 L669,1504 L678,1504 L687,1504 L695,1504 L704,1504 L708,1504 L713,1504 L715,1502 L717,1500 L716,1499 L716,1498 L709,1497 L703,1496 L695,1496 L687,1495 L678,1495 L670,1494 L664,1495 L659,1495 L657,1496 L655,1496 L648,1497 L642,1497 L640,1497 L639,1497 L630,1497 L622,1496 L619,1496 L616,1495 L611,1495 L606,1495 L603,1495 L600,1494 L595,1494 L590,1493 L586,1493 L583,1493 L578,1493 L574,1492 L570,1492 L567,1492 L562,1492 L557,1492 L553,1492 L549,1492 L544,1492 L539,1492 L536,1493 L533,1494 L533,1496 L534,1498 L535,1498 L537,1498 L544,1498 L552,1498 L560,1498 L568,1497 L574,1499 L581,1501 L582,1501 L584,1501 L590,1502 L597,1503 L599,1503 L601,1503" id="Shape" fill="#000000"></path>
                    <path d="M713,1504 L729,1504 L737,1504 L746,1504 L747,1504 L749,1504 L786,1501 L824,1497 L825,1497 L826,1497 L828,1497 L830,1497 L836,1497 L843,1496 L844,1496 L846,1496 L853,1496 L860,1496 L861,1496 L863,1495 L869,1494 L875,1493 L876,1493 L878,1493 L880,1493 L882,1493 L937,1485 L992,1476 L994,1476 L997,1476 L998,1476 L999,1476 L1004,1478 L1010,1480 L1011,1480 L1012,1480 L1013,1481 L1015,1482 L1040,1493 L1065,1504 L1104,1504 L1143,1504 L1160,1504 L1177,1504 L1153,1493 L1130,1481 L1110,1468 L1090,1454 L1067,1446 L1044,1437 L998,1436 L953,1435 L950,1436 L947,1437 L945,1437 L943,1437 L942,1438 L941,1438 L882,1439 L824,1440 L826,1438 L829,1436 L824,1422 L819,1407 L785,1423 L752,1439 L749,1439 L747,1439 L747,1441 L748,1442 L749,1442 L744,1443 L739,1443 L734,1443 L730,1442 L726,1442 L723,1442 L722,1442 L721,1442 L718,1443 L715,1443 L659,1438 L603,1432 L576,1429 L550,1425 L516,1424 L482,1422 L480,1422 L479,1421 L446,1419 L413,1416 L383,1414 L353,1412 L325,1408 L297,1403 L278,1402 L260,1400 L254,1422 L249,1443 L274,1440 L300,1437 L326,1446 L352,1455 L381,1461 L410,1466 L443,1473 L477,1479 L478,1480 L479,1480 L484,1481 L489,1482 L521,1485 L554,1488 L606,1492 L659,1495 L664,1495 L670,1494 L678,1495 L687,1495 L695,1496 L703,1496 L709,1497 L716,1498 L716,1499 L717,1500 L715,1502 L713,1504" id="Shape" fill="#BBD2DA"></path>
                    <path d="M749,1504 L763,1504 L763,1503 L763,1502 L763,1500 L770,1500 L777,1499 L778,1499 L780,1499 L788,1499 L797,1499 L804,1499 L812,1499 L813,1499 L815,1499 L820,1498 L826,1497 L825,1497 L824,1497 L786,1501 L749,1504" id="Shape" fill="#77A7B8"></path>
                    <path d="M763,1503 L763,1504 L771,1504 L779,1504 L787,1504 L796,1504 L805,1504 L814,1504 L822,1504 L831,1504 L840,1504 L849,1504 L857,1504 L866,1504 L870,1504 L874,1504 L875,1502 L877,1500 L879,1497 L882,1493 L880,1493 L878,1493 L876,1493 L875,1493 L869,1494 L863,1495 L861,1496 L860,1496 L853,1496 L846,1496 L844,1496 L843,1496 L836,1497 L830,1497 L828,1497 L826,1497 L820,1498 L815,1499 L813,1499 L812,1499 L804,1499 L797,1499 L788,1499 L780,1499 L778,1499 L777,1499 L770,1500 L763,1500 L763,1502 L763,1503" id="Shape" fill="#000000"></path>
                    <path d="M874,1504 L889,1504 L895,1503 L901,1501 L902,1501 L904,1501 L911,1501 L918,1500 L919,1500 L921,1500 L928,1500 L935,1500 L936,1500 L937,1499 L944,1499 L952,1499 L953,1499 L955,1499 L961,1500 L967,1500 L992,1502 L1018,1504 L1024,1504 L1031,1504 L1033,1504 L1036,1504 L1036,1503 L1033,1501 L1030,1498 L1028,1497 L1027,1496 L1023,1494 L1019,1492 L1016,1492 L1014,1491 L1011,1488 L1008,1485 L1006,1484 L1005,1483 L1000,1482 L996,1480 L993,1480 L990,1480 L991,1478 L992,1476 L937,1485 L882,1493 L879,1497 L877,1500 L875,1502 L874,1504" id="Shape" fill="#77A7B8"></path>
                    <path d="M889,1504 L905,1504 L913,1504 L922,1504 L931,1504 L940,1504 L948,1504 L957,1504 L966,1504 L975,1504 L976,1504 L976,1503 L971,1502 L967,1501 L967,1500 L961,1500 L955,1499 L953,1499 L952,1499 L944,1499 L937,1499 L936,1500 L935,1500 L928,1500 L921,1500 L919,1500 L918,1500 L911,1501 L904,1501 L902,1501 L901,1501 L895,1503 L889,1504" id="Shape" fill="#000000"></path>
                    <path d="M976,1503 L976,1504 L984,1504 L992,1504 L1000,1504 L1009,1504 L1013,1504 L1018,1504 L992,1502 L967,1500 L967,1501 L971,1502 L976,1503" id="Shape" fill="#527A94"></path>
                    <path d="M1036,1503 L1036,1504 L1044,1504 L1052,1504 L1053,1504 L1055,1504 L1055,1503 L1053,1502 L1052,1501 L1049,1500 L1047,1498 L1043,1497 L1039,1496 L1036,1495 L1033,1494 L1030,1492 L1028,1490 L1025,1489 L1023,1487 L1020,1486 L1017,1484 L1016,1483 L1015,1482 L1013,1481 L1012,1480 L1011,1480 L1010,1480 L1004,1478 L999,1476 L998,1476 L997,1476 L994,1476 L992,1476 L991,1478 L990,1480 L993,1480 L996,1480 L1000,1482 L1005,1483 L1006,1484 L1008,1485 L1011,1488 L1014,1491 L1016,1492 L1019,1492 L1023,1494 L1027,1496 L1028,1497 L1030,1498 L1033,1501 L1036,1503" id="Shape" fill="#000000"></path>
                    <path d="M1055,1503 L1055,1504 L1060,1504 L1065,1504 L1040,1493 L1015,1482 L1016,1483 L1017,1484 L1020,1486 L1023,1487 L1025,1489 L1028,1490 L1030,1492 L1033,1494 L1036,1495 L1039,1496 L1043,1497 L1047,1498 L1049,1500 L1052,1501 L1053,1502 L1055,1503" id="Shape" fill="#77A7B8"></path>
                    <path d="M1177,1504 L1235,1504 L1235,1499 L1235,1494 L1235,1491 L1235,1487 L1235,1486 L1235,1484 L1207,1477 L1179,1469 L1143,1459 L1107,1449 L1104,1448 L1101,1447 L1094,1446 L1087,1444 L1080,1442 L1074,1439 L1067,1437 L1061,1435 L1055,1433 L1049,1430 L1043,1427 L1038,1423 L1033,1420 L1028,1416 L1021,1414 L1015,1411 L1009,1409 L1003,1406 L997,1404 L991,1401 L983,1400 L975,1399 L969,1400 L963,1400 L963,1402 L963,1403 L964,1405 L965,1407 L967,1411 L969,1414 L974,1418 L979,1421 L974,1425 L970,1429 L963,1432 L957,1434 L955,1435 L953,1435 L998,1436 L1044,1437 L1067,1446 L1090,1454 L1110,1468 L1130,1481 L1153,1493 L1177,1504" id="Shape" fill="#77A7B8"></path>
                    <path d="M639,1497 L642,1497 L648,1497 L655,1496 L657,1496 L659,1495 L606,1492 L554,1488 L521,1485 L489,1482 L490,1483 L492,1484 L500,1485 L508,1486 L513,1488 L519,1489 L519,1490 L520,1491 L523,1493 L527,1494 L530,1494 L533,1494 L536,1493 L539,1492 L544,1492 L549,1492 L553,1492 L557,1492 L562,1492 L567,1492 L570,1492 L574,1492 L578,1493 L583,1493 L586,1493 L590,1493 L595,1494 L600,1494 L603,1495 L606,1495 L611,1495 L616,1495 L619,1496 L622,1496 L630,1497 L639,1497" id="Shape" fill="#77A7B8"></path>
                    <path d="M505,1491 L516,1490 L517,1490 L518,1489 L519,1489 L513,1488 L508,1486 L500,1485 L492,1484 L490,1483 L489,1482 L484,1481 L479,1480 L478,1480 L477,1479 L471,1479 L466,1478 L465,1478 L464,1477 L456,1476 L449,1475 L441,1474 L434,1473 L427,1472 L421,1471 L419,1471 L418,1471 L411,1470 L404,1468 L397,1467 L391,1466 L389,1466 L388,1466 L381,1464 L375,1462 L368,1461 L361,1459 L355,1458 L349,1456 L348,1456 L347,1455 L340,1454 L333,1452 L327,1450 L322,1448 L320,1448 L319,1448 L312,1446 L306,1444 L299,1442 L293,1440 L285,1440 L277,1440 L277,1441 L277,1442 L281,1444 L285,1446 L287,1447 L289,1447 L294,1448 L299,1449 L301,1450 L303,1451 L306,1452 L309,1452 L313,1453 L318,1453 L324,1455 L331,1457 L337,1460 L343,1463 L349,1463 L356,1463 L358,1464 L361,1465 L365,1466 L370,1467 L375,1470 L381,1473 L387,1475 L394,1477 L403,1477 L412,1477 L419,1479 L426,1480 L434,1480 L442,1480 L449,1482 L456,1483 L464,1483 L473,1483 L480,1485 L487,1487 L494,1489 L501,1490 L503,1491 L505,1491" id="Shape" fill="#000000"></path>
                    <path d="M264,1487 L268,1478 L269,1479 L270,1480 L272,1482 L275,1484 L274,1483 L273,1482 L274,1479 L275,1476 L275,1474 L276,1471 L275,1467 L275,1463 L276,1464 L278,1464 L293,1458 L309,1452 L306,1452 L303,1451 L301,1450 L299,1449 L294,1448 L289,1447 L287,1447 L285,1446 L281,1444 L277,1442 L277,1441 L277,1440 L260,1443 L244,1446 L244,1448 L245,1449 L249,1454 L253,1459 L255,1466 L257,1472 L259,1479 L262,1485 L263,1486 L264,1487" id="Shape" fill="#527A94"></path>
                    <path d="M1235,1484 L1235,1474 L1235,1472 L1235,1470 L1229,1470 L1223,1469 L1221,1469 L1219,1468 L1213,1467 L1208,1466 L1206,1466 L1204,1466 L1198,1465 L1193,1464 L1191,1464 L1190,1463 L1184,1462 L1179,1460 L1177,1460 L1176,1459 L1169,1459 L1163,1459 L1161,1459 L1160,1458 L1154,1457 L1149,1456 L1147,1456 L1145,1455 L1139,1455 L1133,1454 L1131,1454 L1130,1453 L1125,1452 L1120,1450 L1118,1450 L1116,1450 L1111,1450 L1107,1449 L1143,1459 L1179,1469 L1207,1477 L1235,1484" id="Shape" fill="#527A94"></path>
                    <path d="M477,1479 L410,1466 L381,1461 L352,1455 L326,1446 L300,1437 L274,1440 L249,1443 L254,1422 L260,1400 L278,1402 L297,1403 L325,1408 L353,1412 L383,1414 L413,1416 L446,1419 L479,1421 L514,1423 L550,1425 L576,1429 L603,1432 L603,1431 L604,1429 L601,1428 L598,1427 L596,1427 L595,1427 L589,1426 L584,1424 L582,1424 L581,1424 L579,1422 L578,1420 L576,1420 L575,1419 L569,1419 L563,1418 L561,1418 L559,1418 L559,1417 L559,1415 L556,1414 L554,1413 L552,1415 L551,1416 L546,1416 L542,1416 L538,1416 L534,1416 L529,1416 L525,1416 L521,1416 L518,1415 L518,1413 L519,1411 L516,1411 L514,1411 L512,1411 L511,1411 L504,1412 L498,1412 L496,1412 L495,1411 L488,1411 L481,1411 L480,1411 L479,1410 L472,1411 L466,1411 L465,1412 L464,1412 L457,1413 L451,1413 L449,1413 L447,1413 L440,1413 L434,1412 L433,1412 L432,1411 L425,1411 L419,1410 L417,1410 L416,1409 L409,1409 L402,1409 L400,1409 L399,1409 L393,1408 L387,1407 L385,1407 L384,1407 L378,1406 L373,1404 L371,1404 L370,1403 L364,1402 L358,1401 L357,1401 L356,1400 L350,1399 L345,1397 L343,1397 L341,1397 L334,1397 L328,1396 L326,1396 L325,1396 L319,1395 L313,1394 L312,1394 L311,1393 L305,1392 L299,1391 L297,1391 L295,1391 L289,1390 L284,1388 L283,1388 L282,1387 L276,1386 L271,1384 L269,1384 L268,1383 L264,1380 L260,1377 L259,1376 L259,1375 L255,1372 L252,1368 L251,1367 L251,1366 L248,1362 L245,1358 L244,1357 L243,1356 L242,1355 L242,1354 L237,1354 L232,1353 L233,1356 L234,1358 L232,1362 L231,1365 L230,1367 L229,1368 L231,1373 L233,1377 L237,1401 L242,1424 L241,1426 L240,1428 L238,1432 L237,1436 L237,1438 L237,1440 L240,1443 L244,1446 L260,1443 L277,1440 L285,1440 L293,1440 L299,1442 L306,1444 L312,1446 L319,1448 L320,1448 L322,1448 L327,1450 L333,1452 L340,1454 L347,1455 L348,1456 L349,1456 L355,1458 L361,1459 L368,1461 L375,1462 L381,1464 L388,1466 L389,1466 L391,1466 L397,1467 L404,1468 L411,1470 L418,1471 L419,1471 L421,1471 L427,1472 L434,1473 L441,1474 L449,1475 L456,1476 L464,1477 L465,1478 L466,1478 L471,1479 L477,1479" id="Shape" fill="#77A7B8"></path>
                    <path d="M161,1473 L175,1472 L181,1470 L188,1468 L195,1466 L202,1464 L198,1463 L195,1462 L189,1464 L183,1465 L182,1466 L181,1466 L179,1466 L178,1465 L174,1465 L171,1465 L170,1465 L170,1466 L165,1470 L161,1473" id="Shape" fill="#000000"></path>
                    <path d="M178,1465 L181,1466 L182,1466 L183,1465 L182,1465 L183,1462 L185,1459 L188,1458 L191,1456 L193,1455 L196,1453 L195,1453 L194,1452 L191,1453 L188,1454 L186,1455 L184,1455 L179,1455 L174,1455 L174,1456 L175,1456 L176,1457 L177,1457 L173,1461 L170,1465 L171,1465 L174,1465 L178,1465" id="Shape" fill="#172A32"></path>
                    <path d="M240,1459 L239,1456 L236,1454 L233,1451 L231,1450 L230,1448 L225,1447 L221,1446 L218,1445 L216,1444 L210,1444 L205,1444 L203,1443 L201,1442 L196,1442 L191,1441 L188,1442 L185,1442 L183,1444 L181,1446 L187,1446 L194,1445 L217,1452 L240,1459" id="Shape" fill="#172A32"></path>
                    <path d="M121,1454 L135,1450 L141,1448 L148,1446 L153,1446 L158,1446 L164,1448 L171,1450 L176,1450 L181,1450 L177,1450 L173,1449 L172,1447 L172,1445 L176,1446 L181,1446 L178,1445 L175,1443 L168,1441 L162,1438 L156,1436 L150,1433 L144,1433 L139,1433 L142,1438 L145,1443 L137,1444 L130,1445 L123,1448 L117,1450 L112,1453 L107,1455 L114,1455 L121,1454" id="Shape" fill="#172A32"></path>
                    <path d="M77,1452 L91,1451 L99,1451 L107,1450 L114,1448 L121,1446 L115,1445 L110,1444 L102,1445 L94,1446 L87,1448 L81,1450 L79,1451 L77,1452" id="Shape" fill="#172A32"></path>
                    <path d="M941,1438 L935,1438 L931,1439 L927,1439 L923,1439 L919,1439 L915,1440 L911,1440 L907,1441 L903,1441 L899,1442 L896,1442 L892,1443 L888,1443 L883,1443 L879,1443 L875,1443 L871,1443 L866,1443 L862,1443 L858,1442 L855,1441 L853,1439 L851,1436 L852,1435 L853,1434 L851,1434 L849,1434 L847,1433 L846,1432 L846,1431 L846,1429 L844,1431 L843,1432 L841,1433 L840,1433 L836,1435 L832,1436 L830,1436 L829,1436 L826,1438 L824,1440 L882,1439 L941,1438" id="Shape" fill="#77A7B8"></path>
                    <path d="M819,1407 L846,1366 L852,1380 L858,1393 L861,1388 L864,1383 L864,1385 L864,1386 L865,1386 L866,1386 L867,1385 L868,1384 L869,1383 L870,1382 L871,1381 L873,1378 L876,1375 L875,1374 L874,1372 L873,1370 L872,1368 L870,1365 L868,1361 L867,1359 L866,1357 L865,1352 L864,1347 L863,1345 L862,1343 L859,1340 L857,1337 L855,1336 L854,1334 L850,1332 L847,1330 L845,1330 L844,1330 L842,1333 L840,1336 L841,1337 L842,1337 L838,1339 L835,1340 L833,1340 L832,1340 L830,1340 L829,1340 L829,1342 L829,1343 L829,1349 L830,1354 L830,1357 L830,1359 L830,1364 L830,1369 L829,1371 L828,1372 L826,1377 L825,1381 L823,1381 L822,1380 L822,1376 L823,1371 L821,1372 L820,1373 L818,1378 L817,1382 L817,1385 L817,1388 L815,1393 L814,1397 L813,1399 L813,1401 L810,1405 L808,1408 L806,1408 L805,1408 L806,1403 L807,1398 L808,1391 L810,1384 L810,1383 L810,1381 L805,1376 L800,1370 L776,1405 L752,1439 L785,1423 L819,1407" id="Shape" fill="#77A7B8"></path>
                    <path d="M739,1443 L749,1442 L748,1442 L747,1441 L747,1439 L741,1439 L736,1438 L735,1438 L734,1438 L727,1437 L721,1435 L720,1435 L712,1435 L705,1434 L704,1435 L704,1436 L705,1437 L710,1438 L715,1439 L716,1439 L718,1441 L721,1442 L722,1442 L723,1442 L726,1442 L730,1442 L734,1443 L739,1443" id="Shape" fill="#000000"></path>
                    <path d="M715,1443 L645,1439 L649,1436 L653,1433 L628,1431 L604,1429 L603,1431 L603,1432 L659,1438 L715,1443" id="Shape" fill="#92D8E4"></path>
                    <path d="M715,1443 L721,1442 L718,1441 L716,1439 L715,1439 L710,1438 L705,1437 L679,1435 L653,1433 L649,1436 L645,1439 L680,1441 L715,1443" id="Shape" fill="#77A7B8"></path>
                    <path d="M747,1439 L752,1439 L776,1405 L800,1370 L807,1352 L815,1334 L813,1333 L812,1331 L812,1329 L812,1327 L812,1322 L812,1316 L812,1314 L812,1311 L812,1307 L812,1302 L811,1303 L810,1303 L809,1311 L809,1319 L807,1326 L806,1333 L802,1333 L798,1333 L796,1340 L795,1347 L791,1353 L788,1358 L783,1362 L779,1366 L775,1371 L771,1375 L764,1378 L758,1380 L750,1381 L743,1382 L743,1380 L744,1378 L724,1385 L705,1392 L704,1395 L703,1398 L701,1401 L699,1404 L697,1406 L696,1408 L693,1411 L691,1413 L688,1414 L686,1415 L682,1414 L679,1413 L676,1413 L674,1413 L673,1414 L672,1414 L656,1416 L641,1417 L637,1418 L634,1419 L632,1420 L630,1421 L624,1421 L618,1421 L615,1421 L613,1421 L607,1421 L601,1421 L598,1421 L595,1421 L590,1421 L585,1420 L582,1420 L579,1420 L578,1420 L579,1422 L581,1424 L582,1424 L584,1424 L589,1426 L595,1427 L596,1427 L598,1427 L601,1428 L604,1429 L628,1431 L653,1433 L679,1435 L705,1437 L704,1436 L704,1435 L705,1434 L712,1435 L720,1435 L721,1435 L727,1437 L734,1438 L735,1438 L736,1438 L741,1439 L747,1439" id="Shape" fill="#4FAEBF"></path>
                    <path d="M832,1436 L840,1433 L841,1433 L843,1432 L844,1431 L846,1429 L848,1426 L851,1423 L851,1422 L852,1420 L854,1416 L857,1411 L857,1410 L858,1409 L860,1404 L862,1399 L862,1398 L863,1397 L863,1392 L864,1386 L864,1385 L864,1383 L861,1388 L858,1393 L858,1394 L857,1395 L857,1396 L854,1401 L852,1405 L851,1406 L851,1407 L848,1412 L846,1417 L845,1418 L845,1419 L842,1424 L840,1428 L839,1429 L838,1429 L835,1433 L832,1436" id="Shape" fill="#000000"></path>
                    <path d="M829,1436 L832,1436 L835,1433 L838,1429 L839,1429 L840,1428 L842,1424 L845,1419 L845,1418 L846,1417 L848,1412 L851,1407 L851,1406 L852,1405 L854,1401 L857,1396 L857,1395 L858,1394 L858,1393 L852,1380 L846,1366 L832,1387 L819,1407 L824,1422 L829,1436" id="Shape" fill="#92D8E4"></path>
                    <path d="M865,1435 L882,1435 L883,1433 L885,1431 L883,1431 L882,1431 L886,1428 L890,1424 L891,1422 L892,1419 L890,1419 L889,1419 L882,1418 L875,1416 L873,1414 L871,1411 L873,1406 L876,1401 L876,1400 L877,1399 L877,1397 L878,1394 L876,1394 L875,1393 L874,1392 L874,1391 L871,1388 L868,1384 L867,1385 L866,1386 L865,1386 L864,1386 L863,1392 L863,1397 L862,1398 L862,1399 L860,1404 L858,1409 L857,1410 L857,1411 L854,1416 L852,1420 L851,1422 L851,1423 L848,1426 L846,1429 L846,1431 L846,1432 L847,1433 L849,1434 L851,1434 L853,1434 L857,1434 L861,1434 L863,1435 L865,1435" id="Shape" fill="#4FAEBF"></path>
                    <path d="M908,1431 L920,1428 L928,1428 L937,1428 L945,1428 L953,1428 L959,1426 L965,1423 L959,1422 L954,1420 L947,1422 L941,1424 L933,1425 L925,1425 L916,1425 L908,1424 L908,1428 L908,1431" id="Shape" fill="#0C8595"></path>
                    <path d="M226,1430 L234,1424 L231,1419 L228,1413 L226,1406 L225,1399 L223,1392 L221,1385 L217,1381 L213,1376 L206,1374 L199,1372 L196,1372 L193,1372 L190,1373 L187,1373 L186,1373 L179,1371 L172,1368 L168,1369 L164,1369 L164,1370 L165,1370 L167,1372 L170,1373 L169,1374 L169,1375 L166,1374 L163,1373 L159,1372 L156,1371 L153,1370 L151,1368 L148,1366 L146,1364 L144,1362 L142,1359 L141,1359 L140,1358 L130,1365 L120,1371 L135,1392 L151,1412 L153,1413 L156,1413 L162,1416 L168,1419 L175,1420 L183,1421 L189,1423 L196,1425 L203,1427 L211,1428 L218,1429 L226,1430" id="Shape" fill="#527A94"></path>
                    <path d="M0,1425 L5,1425 L9,1424 L14,1423 L16,1422 L19,1421 L22,1420 L26,1418 L29,1418 L32,1417 L35,1415 L39,1413 L41,1412 L44,1411 L47,1410 L51,1408 L53,1407 L56,1406 L59,1404 L63,1402 L65,1402 L68,1401 L72,1400 L76,1398 L78,1397 L80,1395 L84,1394 L88,1393 L90,1392 L93,1391 L98,1391 L103,1390 L105,1391 L108,1392 L111,1394 L114,1396 L116,1397 L119,1398 L122,1400 L126,1402 L127,1404 L129,1405 L133,1407 L137,1408 L139,1409 L142,1410 L146,1411 L151,1412 L135,1392 L120,1371 L130,1365 L140,1358 L140,1356 L140,1353 L139,1351 L139,1349 L139,1346 L140,1343 L140,1345 L141,1347 L143,1351 L145,1355 L146,1357 L147,1358 L150,1361 L154,1364 L155,1365 L157,1366 L160,1368 L164,1369 L168,1369 L172,1368 L163,1346 L155,1323 L157,1321 L159,1319 L165,1316 L171,1313 L173,1312 L175,1311 L149,1323 L123,1334 L99,1346 L76,1357 L38,1371 L0,1384 L0,1387 L0,1389 L0,1398 L0,1406 L0,1416 L0,1425" id="Shape" fill="#334E5F"></path>
                    <path d="M550,1425 L479,1421 L480,1422 L482,1422 L516,1424 L550,1425" id="Shape" fill="#92D8E4"></path>
                    <path d="M242,1424 L233,1377 L233,1378 L233,1379 L237,1383 L242,1387 L244,1394 L246,1401 L244,1407 L243,1413 L242,1419 L242,1424" id="Shape" fill="#527A94"></path>
                    <path d="M194,1421 L204,1416 L206,1410 L209,1404 L210,1398 L211,1392 L204,1390 L198,1388 L189,1388 L180,1388 L183,1391 L186,1393 L190,1397 L195,1401 L194,1404 L194,1406 L190,1408 L186,1409 L187,1414 L188,1419 L191,1420 L194,1421" id="Shape" fill="#77A7B8"></path>
                    <path d="M810,1381 L811,1378 L812,1374 L813,1370 L814,1367 L815,1364 L816,1360 L817,1356 L818,1354 L819,1351 L819,1347 L820,1342 L821,1341 L822,1340 L821,1340 L820,1339 L820,1337 L820,1334 L817,1334 L815,1334 L807,1352 L800,1370 L805,1376 L810,1381" id="Shape" fill="#92D8E4"></path>
                    <path d="M989,1421 L988,1413 L982,1410 L977,1407 L978,1411 L980,1414 L984,1418 L989,1421" id="Shape" fill="#BBD2DA"></path>
                    <path d="M672,1414 L667,1415 L663,1416 L660,1416 L655,1416 L651,1416 L646,1416 L642,1416 L641,1417 L656,1416 L672,1414" id="Shape" fill="#32AEBF"></path>
                    <path d="M518,1415 L525,1416 L529,1416 L534,1416 L538,1416 L542,1416 L546,1416 L551,1416 L552,1415 L554,1413 L550,1412 L546,1411 L545,1411 L544,1411 L536,1411 L528,1411 L527,1411 L523,1411 L519,1411 L518,1413 L518,1415" id="Shape" fill="#4FAEBF"></path>
                    <path d="M964,1413 L969,1414 L967,1411 L965,1407 L964,1405 L963,1403 L963,1402 L963,1400 L961,1400 L959,1400 L957,1401 L956,1401 L951,1399 L946,1397 L944,1397 L943,1396 L939,1395 L936,1394 L935,1396 L935,1397 L935,1398 L936,1398 L941,1400 L946,1402 L947,1403 L948,1404 L951,1407 L955,1410 L956,1411 L957,1412 L960,1413 L964,1413" id="Shape" fill="#172A32"></path>
                    <path d="M805,1408 L808,1408 L810,1405 L813,1401 L813,1399 L814,1397 L815,1393 L817,1388 L817,1385 L817,1382 L818,1378 L820,1373 L821,1372 L823,1371 L822,1376 L822,1380 L823,1381 L825,1381 L826,1377 L828,1372 L829,1371 L830,1369 L830,1364 L830,1359 L830,1357 L830,1354 L829,1349 L829,1343 L829,1342 L829,1340 L827,1340 L826,1339 L824,1340 L822,1340 L821,1341 L820,1342 L819,1347 L819,1351 L818,1354 L817,1356 L816,1360 L815,1364 L814,1367 L813,1370 L812,1374 L811,1378 L810,1380 L810,1381 L810,1383 L810,1384 L808,1391 L807,1398 L806,1403 L805,1408" id="Shape" fill="#000000"></path>
                    <path d="M744,1378 L751,1378 L753,1378 L755,1377 L759,1375 L763,1373 L764,1372 L766,1371 L765,1369 L765,1366 L762,1366 L760,1366 L755,1368 L750,1369 L740,1365 L731,1361 L726,1363 L722,1364 L721,1365 L720,1365 L716,1369 L712,1372 L711,1373 L711,1374 L709,1379 L707,1384 L707,1386 L707,1387 L706,1390 L705,1392 L724,1385 L744,1378" id="Shape" fill="#32AEBF"></path>
                    <path d="M875,1393 L878,1394 L879,1391 L881,1388 L882,1388 L884,1387 L882,1382 L880,1377 L879,1377 L878,1376 L877,1376 L876,1375 L873,1378 L871,1381 L870,1382 L869,1383 L868,1384 L871,1388 L874,1391 L874,1392 L875,1393" id="Shape" fill="#0C8595"></path>
                    <path d="M929,1393 L936,1394 L935,1393 L934,1392 L932,1392 L930,1391 L926,1389 L923,1386 L921,1386 L919,1385 L915,1383 L911,1380 L909,1379 L908,1378 L906,1379 L904,1380 L905,1382 L906,1383 L910,1386 L914,1388 L915,1389 L917,1390 L921,1391 L925,1392 L927,1393 L929,1393" id="Shape" fill="#172A32"></path>
                    <path d="M0,1384 L76,1357 L99,1346 L123,1334 L149,1323 L175,1311 L179,1311 L184,1310 L185,1309 L188,1312 L191,1315 L193,1314 L195,1313 L193,1311 L192,1308 L189,1308 L186,1308 L181,1308 L176,1308 L174,1309 L172,1309 L167,1311 L163,1312 L160,1313 L158,1313 L153,1315 L149,1316 L147,1317 L145,1317 L141,1319 L137,1321 L135,1322 L133,1322 L129,1325 L126,1327 L124,1329 L123,1330 L120,1333 L117,1336 L115,1337 L114,1338 L110,1340 L106,1342 L104,1343 L102,1344 L98,1346 L94,1348 L92,1349 L90,1349 L85,1351 L81,1352 L79,1353 L78,1354 L73,1356 L69,1357 L67,1358 L65,1359 L60,1361 L56,1362 L54,1363 L52,1363 L47,1365 L43,1366 L41,1367 L39,1368 L34,1369 L29,1370 L27,1371 L25,1371 L20,1373 L16,1374 L14,1375 L12,1375 L7,1377 L3,1378 L1,1378 L0,1378 L0,1381 L0,1384" id="Shape" fill="#172A32"></path>
                    <path d="M169,1375 L170,1373 L167,1372 L165,1370 L164,1370 L164,1369 L160,1368 L157,1366 L155,1365 L154,1364 L150,1361 L147,1358 L146,1357 L145,1355 L143,1351 L141,1347 L140,1345 L140,1343 L139,1346 L139,1349 L139,1351 L140,1353 L140,1356 L140,1358 L141,1359 L142,1359 L144,1362 L146,1364 L148,1366 L151,1368 L153,1370 L156,1371 L159,1372 L163,1373 L166,1374 L169,1375" id="Shape" fill="#000000"></path>
                    <path d="M187,1373 L193,1372 L190,1371 L187,1370 L186,1369 L186,1368 L181,1366 L177,1363 L176,1363 L175,1362 L172,1358 L169,1353 L168,1352 L168,1351 L167,1345 L166,1339 L166,1338 L166,1336 L166,1335 L164,1340 L162,1345 L162,1347 L162,1348 L174,1361 L186,1373 L187,1373" id="Shape" fill="#105D6D"></path>
                    <path d="M186,1373 L162,1348 L159,1348 L156,1347 L156,1346 L156,1344 L155,1343 L155,1342 L154,1339 L153,1336 L153,1333 L153,1330 L154,1327 L155,1323 L163,1346 L172,1368 L179,1371 L186,1373" id="Shape" fill="#306D70"></path>
                    <path d="M750,1369 L748,1366 L747,1364 L746,1362 L749,1361 L753,1359 L751,1358 L749,1357 L745,1358 L741,1358 L737,1359 L734,1359 L732,1360 L731,1361 L740,1365 L750,1369" id="Shape" fill="#172A32"></path>
                    <path d="M228,1367 L229,1368 L230,1367 L231,1365 L232,1362 L234,1358 L233,1356 L232,1353 L237,1354 L242,1354 L239,1350 L237,1345 L237,1344 L237,1342 L235,1337 L233,1331 L233,1330 L233,1329 L230,1324 L228,1319 L228,1318 L228,1317 L225,1320 L222,1322 L222,1324 L222,1325 L223,1331 L225,1337 L225,1338 L226,1338 L227,1345 L228,1351 L228,1353 L228,1354 L228,1361 L228,1367" id="Shape" fill="#0C8595"></path>
                    <path d="M156,1347 L162,1348 L162,1347 L162,1345 L162,1344 L162,1342 L163,1339 L162,1337 L161,1335 L161,1330 L162,1325 L163,1324 L165,1322 L165,1321 L166,1319 L165,1320 L164,1321 L161,1323 L158,1325 L157,1328 L156,1330 L154,1333 L153,1336 L154,1339 L155,1342 L155,1343 L156,1344 L156,1346 L156,1347" id="Shape" fill="#527A94"></path>
                    <path d="M162,1344 L162,1345 L164,1340 L166,1335 L166,1334 L166,1333 L169,1329 L173,1325 L174,1324 L175,1323 L177,1321 L175,1319 L173,1317 L170,1318 L168,1318 L167,1319 L166,1319 L165,1321 L165,1322 L163,1324 L162,1325 L161,1330 L161,1335 L162,1337 L163,1339 L162,1342 L162,1344" id="Shape" fill="#318395"></path>
                    <path d="M835,1340 L842,1337 L841,1337 L840,1336 L842,1333 L844,1330 L843,1329 L842,1328 L841,1328 L835,1326 L830,1323 L829,1323 L829,1322 L826,1320 L824,1318 L824,1322 L824,1326 L824,1330 L824,1334 L825,1337 L826,1339 L827,1340 L829,1340 L830,1340 L832,1340 L833,1340 L835,1340" id="Shape" fill="#318395"></path>
                    <path d="M820,1339 L822,1340 L824,1340 L826,1339 L825,1337 L824,1334 L824,1330 L824,1326 L824,1322 L824,1318 L824,1317 L823,1315 L823,1313 L821,1308 L820,1303 L819,1302 L818,1300 L817,1298 L816,1295 L815,1295 L813,1295 L812,1294 L812,1298 L812,1302 L812,1307 L812,1311 L812,1314 L812,1316 L812,1322 L812,1327 L812,1329 L812,1331 L813,1333 L815,1334 L817,1334 L820,1334 L820,1337 L820,1339" id="Shape" fill="#77A7B8"></path>
                    <path d="M153,1336 L156,1330 L157,1328 L158,1325 L161,1323 L164,1321 L165,1320 L166,1319 L167,1319 L168,1318 L170,1318 L173,1317 L175,1319 L177,1321 L180,1320 L183,1318 L185,1317 L188,1315 L189,1315 L191,1315 L188,1312 L185,1309 L184,1310 L179,1311 L175,1311 L173,1312 L171,1313 L165,1316 L159,1319 L157,1321 L155,1323 L154,1327 L153,1330 L153,1333 L153,1336" id="Shape" fill="#105D6D"></path>
                    <path d="M606,1309 L641,1314 L653,1314 L665,1314 L666,1312 L667,1310 L665,1309 L664,1308 L660,1305 L657,1302 L656,1301 L655,1299 L654,1299 L654,1298 L652,1295 L650,1292 L650,1291 L650,1290 L647,1285 L644,1280 L644,1279 L641,1274 L638,1269 L639,1269 L644,1272 L650,1274 L650,1275 L651,1275 L653,1281 L655,1287 L660,1289 L665,1290 L667,1290 L669,1290 L666,1293 L664,1296 L665,1297 L667,1298 L669,1298 L671,1298 L702,1288 L734,1278 L746,1260 L759,1242 L758,1229 L757,1216 L731,1226 L706,1236 L678,1247 L651,1258 L627,1267 L604,1275 L602,1272 L601,1268 L585,1266 L569,1263 L567,1286 L566,1309 L586,1309 L606,1309" id="Shape" fill="#32AEBF"></path>
                    <path d="M669,1316 L680,1312 L673,1310 L667,1308 L666,1305 L666,1301 L668,1300 L671,1298 L669,1298 L667,1298 L665,1297 L664,1296 L666,1293 L669,1290 L667,1290 L665,1290 L660,1289 L655,1287 L655,1288 L655,1290 L656,1291 L656,1295 L656,1298 L655,1298 L654,1298 L654,1299 L655,1299 L656,1301 L657,1302 L660,1305 L664,1308 L665,1309 L667,1310 L666,1312 L665,1314 L665,1315 L665,1316 L667,1316 L669,1316" id="Shape" fill="#172A32"></path>
                    <path d="M741,1287 L740,1282 L719,1296 L699,1310 L720,1299 L741,1287" id="Shape" fill="#32AEBF"></path>
                    <path d="M601,1268 L653,1254 L652,1256 L651,1258 L678,1247 L706,1236 L731,1226 L757,1216 L755,1209 L754,1201 L754,1194 L754,1186 L754,1183 L754,1180 L735,1195 L716,1209 L696,1223 L677,1236 L653,1241 L630,1245 L575,1236 L520,1226 L525,1210 L531,1194 L547,1178 L563,1162 L580,1159 L598,1155 L618,1148 L639,1141 L653,1127 L668,1112 L685,1101 L703,1090 L726,1086 L750,1081 L765,1095 L781,1108 L782,1129 L784,1150 L802,1128 L821,1106 L821,1105 L819,1101 L817,1097 L814,1102 L811,1106 L799,1090 L787,1074 L762,1066 L738,1057 L714,1062 L690,1067 L664,1069 L639,1071 L628,1051 L618,1031 L629,1022 L640,1013 L617,1004 L595,994 L573,1003 L551,1011 L553,1040 L556,1069 L557,1071 L558,1073 L554,1105 L551,1136 L550,1147 L550,1158 L527,1166 L504,1173 L485,1145 L467,1117 L464,1115 L462,1112 L461,1111 L460,1110 L444,1104 L429,1098 L416,1108 L403,1118 L405,1118 L408,1118 L410,1118 L412,1117 L413,1118 L415,1118 L430,1137 L446,1155 L447,1156 L449,1156 L453,1159 L457,1161 L458,1162 L459,1163 L460,1167 L462,1171 L461,1173 L461,1174 L462,1178 L464,1181 L471,1196 L479,1211 L499,1226 L519,1241 L543,1252 L567,1263 L568,1263 L569,1263 L585,1266 L601,1268" id="Shape" fill="#4FAEBF"></path>
                    <path d="M810,1303 L812,1302 L812,1298 L812,1294 L813,1295 L815,1295 L816,1295 L814,1292 L813,1288 L812,1288 L811,1287 L810,1288 L810,1289 L808,1286 L806,1282 L804,1280 L803,1278 L803,1273 L803,1268 L802,1265 L801,1261 L800,1262 L800,1268 L800,1273 L800,1276 L800,1278 L801,1283 L803,1288 L803,1290 L804,1291 L805,1296 L807,1301 L808,1302 L810,1303" id="Shape" fill="#318395"></path>
                    <path d="M656,1298 L656,1291 L655,1290 L655,1288 L655,1287 L653,1281 L651,1275 L650,1275 L650,1274 L644,1272 L639,1269 L638,1269 L641,1274 L644,1279 L644,1280 L647,1285 L650,1290 L650,1291 L650,1292 L652,1295 L654,1298 L655,1298 L656,1298" id="Shape" fill="#000000"></path>
                    <path d="M212,1296 L222,1291 L225,1286 L229,1281 L229,1278 L230,1274 L225,1278 L220,1281 L216,1286 L213,1291 L212,1294 L212,1296" id="Shape" fill="#172A32"></path>
                    <path d="M810,1289 L811,1287 L815,1241 L819,1194 L819,1192 L820,1189 L820,1186 L821,1182 L822,1178 L823,1174 L823,1171 L824,1168 L825,1164 L826,1160 L826,1157 L827,1153 L827,1149 L828,1145 L829,1143 L831,1140 L832,1136 L833,1132 L834,1129 L835,1126 L835,1122 L836,1118 L837,1115 L838,1112 L839,1108 L840,1104 L840,1101 L841,1098 L842,1095 L844,1091 L845,1089 L847,1086 L848,1083 L850,1080 L851,1080 L853,1079 L866,1060 L880,1040 L882,1038 L884,1036 L885,1034 L887,1032 L882,1029 L877,1026 L878,1021 L879,1015 L878,1016 L875,1022 L873,1028 L872,1029 L872,1030 L869,1035 L866,1039 L862,1044 L859,1049 L856,1055 L854,1061 L853,1062 L852,1062 L850,1068 L848,1073 L845,1079 L842,1084 L841,1085 L840,1085 L838,1091 L836,1096 L833,1102 L831,1108 L830,1113 L829,1118 L823,1150 L818,1181 L815,1187 L813,1192 L812,1193 L812,1194 L811,1199 L810,1203 L809,1206 L809,1208 L808,1213 L807,1217 L806,1220 L805,1222 L804,1227 L803,1231 L803,1234 L803,1237 L803,1243 L803,1248 L802,1250 L801,1252 L801,1257 L801,1261 L802,1265 L803,1268 L803,1273 L803,1278 L804,1280 L806,1282 L808,1286 L810,1289" id="Shape" fill="#105D6D"></path>
                    <path d="M813,1288 L810,1276 L809,1275 L809,1274 L809,1267 L809,1260 L809,1259 L809,1257 L809,1249 L810,1241 L811,1235 L812,1228 L812,1227 L813,1226 L814,1220 L815,1214 L815,1213 L816,1212 L817,1206 L819,1200 L819,1199 L819,1197 L819,1196 L819,1194 L815,1241 L811,1287 L812,1288 L813,1288" id="Shape" fill="#172A32"></path>
                    <path d="M690,1278 L701,1274 L706,1271 L712,1268 L720,1268 L729,1267 L733,1265 L738,1263 L740,1261 L742,1258 L734,1258 L726,1258 L719,1260 L713,1262 L706,1265 L700,1267 L695,1271 L691,1275 L690,1277 L690,1278" id="Shape" fill="#000000"></path>
                    <path d="M651,1258 L653,1254 L627,1261 L601,1268 L602,1272 L604,1275 L627,1267 L651,1258" id="Shape" fill="#172A32"></path>
                    <path d="M790,1261 L797,1253 L797,1245 L798,1237 L795,1236 L792,1235 L790,1242 L789,1249 L789,1255 L790,1261" id="Shape" fill="#0C8595"></path>
                    <path d="M630,1245 L677,1236 L696,1223 L716,1209 L735,1195 L754,1180 L769,1165 L784,1150 L782,1129 L781,1108 L765,1095 L750,1081 L726,1086 L703,1090 L685,1101 L668,1112 L653,1127 L639,1141 L618,1148 L598,1155 L580,1159 L563,1162 L547,1178 L531,1194 L525,1210 L520,1226 L575,1236 L630,1245" id="Shape" fill="#77A7B8"></path>
                    <path d="M642,1215 L663,1202 L667,1191 L671,1180 L702,1166 L733,1151 L721,1134 L709,1117 L694,1134 L679,1151 L665,1170 L652,1189 L632,1190 L613,1190 L611,1205 L609,1220 L625,1218 L642,1215" id="Shape" fill="#92D8E4"></path>
                    <path d="M775,1205 L777,1200 L779,1197 L782,1194 L783,1192 L784,1190 L787,1188 L791,1186 L792,1184 L794,1182 L796,1180 L799,1177 L800,1175 L802,1173 L802,1172 L803,1170 L804,1165 L805,1160 L807,1155 L809,1149 L808,1149 L808,1148 L803,1147 L798,1146 L796,1147 L795,1148 L792,1150 L789,1151 L786,1153 L784,1155 L782,1157 L780,1159 L777,1161 L775,1163 L772,1165 L770,1167 L768,1170 L767,1172 L765,1175 L764,1178 L763,1182 L762,1185 L762,1188 L762,1191 L764,1193 L767,1195 L767,1199 L768,1203 L771,1204 L775,1205" id="Shape" fill="#4FAEBF"></path>
                    <path d="M727,1172 L733,1151 L702,1166 L671,1180 L699,1176 L727,1172" id="Shape" fill="#BBD2DA"></path>
                    <path d="M809,1196 L811,1194 L812,1194 L812,1193 L813,1192 L817,1164 L821,1136 L820,1133 L820,1130 L819,1131 L814,1135 L810,1139 L805,1142 L800,1144 L799,1145 L798,1146 L803,1147 L808,1148 L808,1149 L809,1149 L807,1155 L805,1160 L804,1165 L803,1170 L805,1169 L807,1167 L809,1169 L811,1170 L807,1175 L803,1180 L801,1187 L799,1193 L804,1195 L809,1196" id="Shape" fill="#0C8595"></path>
                    <path d="M813,1192 L818,1181 L823,1150 L829,1118 L828,1120 L827,1121 L826,1124 L826,1126 L823,1128 L820,1130 L820,1133 L821,1136 L817,1164 L813,1192" id="Shape" fill="#318395"></path>
                    <path d="M462,1180 L464,1181 L462,1178 L461,1174 L461,1173 L462,1171 L460,1167 L459,1163 L458,1162 L457,1161 L453,1159 L449,1156 L447,1156 L446,1155 L446,1156 L442,1158 L438,1159 L442,1164 L446,1168 L451,1172 L457,1175 L459,1178 L462,1180" id="Shape" fill="#0C8595"></path>
                    <path d="M550,1158 L546,1153 L543,1154 L540,1154 L538,1157 L537,1160 L537,1162 L538,1163 L534,1165 L530,1166 L527,1166 L525,1165 L524,1164 L523,1163 L523,1162 L523,1160 L511,1160 L500,1159 L497,1135 L494,1111 L480,1114 L467,1117 L485,1145 L504,1173 L527,1166 L550,1158" id="Shape" fill="#32AEBF"></path>
                    <path d="M525,1165 L530,1166 L534,1165 L538,1163 L537,1162 L537,1160 L538,1157 L540,1154 L543,1154 L546,1153 L544,1150 L542,1146 L538,1151 L534,1155 L529,1152 L525,1149 L524,1155 L523,1160 L523,1162 L523,1163 L524,1164 L525,1165" id="Shape" fill="#172A32"></path>
                    <path d="M420,1135 L420,1126 L417,1122 L415,1118 L413,1118 L412,1117 L410,1118 L408,1118 L405,1118 L403,1118 L400,1118 L398,1117 L400,1121 L402,1124 L408,1127 L414,1129 L417,1132 L420,1135" id="Shape" fill="#0C8595"></path>
                    <path d="M551,1136 L558,1073 L553,1088 L548,1103 L549,1120 L551,1136" id="Shape" fill="#32AEBF"></path>
                    <path d="M460,1110 L459,1108 L452,1106 L446,1104 L439,1102 L433,1099 L431,1099 L429,1098 L444,1104 L460,1110" id="Shape" fill="#32AEBF"></path>
                    <path d="M811,1106 L817,1097 L819,1101 L821,1105 L822,1105 L822,1098 L823,1090 L825,1084 L828,1078 L827,1073 L826,1067 L822,1069 L818,1071 L813,1071 L809,1071 L811,1076 L814,1080 L814,1089 L814,1097 L813,1102 L812,1106 L811,1106" id="Shape" fill="#172A32"></path>
                    <path d="M690,1067 L738,1057 L762,1066 L787,1074 L767,1059 L747,1043 L742,1043 L737,1043 L715,1047 L693,1050 L670,1045 L648,1039 L640,1019 L633,998 L604,992 L575,986 L562,1008 L549,1029 L552,1049 L556,1069 L553,1040 L551,1011 L573,1003 L595,994 L617,1004 L640,1013 L629,1022 L618,1031 L628,1051 L639,1071 L664,1069 L690,1067" id="Shape" fill="#32AEBF"></path>
                    <path d="M601,1047 L605,1015 L586,1035 L567,1055 L567,1061 L567,1066 L569,1073 L572,1079 L586,1063 L601,1047" id="Shape" fill="#92D8E4"></path>
                    <path d="M853,1079 L855,1077 L857,1073 L859,1069 L860,1067 L861,1065 L863,1062 L865,1058 L866,1056 L867,1054 L869,1051 L872,1047 L873,1046 L875,1045 L877,1043 L880,1040 L866,1060 L853,1079" id="Shape" fill="#172A32"></path>
                    <path d="M567,1054 L567,1055 L586,1035 L605,1015 L603,1014 L601,1012 L597,1007 L594,1001 L587,1002 L580,1002 L577,1008 L574,1014 L571,1020 L569,1026 L570,1033 L571,1039 L571,1045 L572,1050 L569,1052 L567,1054" id="Shape" fill="#77A7B8"></path>
                    <path d="M737,1043 L728,1038 L721,1040 L715,1042 L708,1044 L701,1046 L697,1048 L693,1050 L715,1047 L737,1043" id="Shape" fill="#0FAFBB"></path>
                    <path d="M887,1032 L893,1031 L894,1031 L895,1030 L899,1028 L904,1025 L905,1024 L906,1023 L908,1019 L911,1014 L911,1013 L912,1012 L912,1007 L913,1001 L913,1000 L913,998 L914,993 L916,987 L916,985 L916,983 L918,978 L920,973 L921,973 L923,973 L926,973 L930,972 L940,970 L951,968 L952,967 L953,965 L951,962 L950,958 L949,956 L948,953 L946,950 L944,946 L943,944 L942,941 L940,938 L938,935 L936,935 L935,934 L927,946 L920,957 L917,962 L915,966 L918,950 L922,934 L923,934 L924,934 L925,934 L926,933 L930,933 L935,933 L933,931 L931,929 L929,929 L927,928 L921,929 L916,929 L914,930 L912,930 L908,933 L904,935 L903,937 L903,938 L894,968 L886,998 L885,998 L885,997 L884,1000 L883,1003 L881,1007 L880,1011 L879,1013 L879,1015 L878,1021 L877,1026 L882,1029 L887,1032" id="Shape" fill="#77A7B8"></path>
                    <path d="M764,1022 L744,1011 L740,1008 L737,1005 L736,1005 L736,1004 L734,1001 L733,997 L729,1007 L726,1017 L745,1020 L764,1022" id="Shape" fill="#0FAFBB"></path>
                    <path d="M884,1025 L893,1019 L896,1014 L900,1009 L902,1003 L905,996 L901,992 L898,988 L895,994 L893,1000 L890,1006 L887,1012 L885,1019 L884,1025" id="Shape" fill="#92D8E4"></path>
                    <path d="M744,1011 L773,958 L764,940 L755,922 L744,908 L734,893 L714,878 L695,863 L686,853 L677,842 L666,825 L655,807 L655,812 L655,816 L655,821 L656,825 L670,846 L684,866 L656,872 L628,877 L616,835 L604,792 L604,789 L604,786 L604,785 L604,784 L606,780 L609,775 L607,775 L606,775 L603,779 L601,783 L608,808 L615,832 L614,836 L613,839 L595,835 L578,831 L574,858 L571,884 L591,881 L612,877 L631,893 L650,908 L655,908 L661,908 L663,908 L666,908 L669,908 L672,908 L687,922 L702,935 L698,939 L695,943 L694,943 L694,942 L690,944 L687,946 L688,948 L690,949 L692,952 L694,955 L696,957 L698,959 L697,960 L696,961 L677,965 L658,968 L686,981 L715,994 L724,996 L733,997 L734,1001 L736,1004 L736,1005 L737,1005 L740,1008 L744,1011 L694.945312,901.546875" id="Shape" fill="#32AEBF"></path>
                    <path d="M886,998 L903,938 L901,940 L900,942 L899,947 L898,951 L897,954 L897,957 L895,961 L894,964 L893,966 L893,968 L892,973 L892,978 L891,981 L890,983 L889,987 L888,991 L886,994 L885,997 L885,998 L886,998" id="Shape" fill="#4FAEBF"></path>
                    <path d="M696,961 L658,938 L628,937 L599,936 L598,939 L597,942 L599,944 L601,946 L606,947 L611,947 L616,948 L622,949 L639,958 L656,967 L657,968 L658,968 L677,965 L696,961" id="Shape" fill="#92D8E4"></path>
                    <path d="M930,972 L937,973 L941,973 L945,972 L947,971 L950,969 L951,968 L940,970 L930,972" id="Shape" fill="#527A94"></path>
                    <path d="M994,941 L969,952 L981,947 L994,941" id="Shape" fill="#172A32"></path>
                    <path d="M505,956 L520,939 L494,948 L469,957 L487,957 L505,956" id="Shape" fill="#0FAFBB"></path>
                    <path d="M213,968 L225,967 L220,964 L215,960 L210,956 L206,951 L202,946 L199,941 L196,944 L193,946 L196,952 L199,958 L203,962 L208,966 L210,967 L213,968" id="Shape" fill="#172A32"></path>
                    <path d="M915,966 L913,965 L912,965 L912,964 L911,963 L911,961 L908,957 L906,953 L906,952 L907,950 L909,945 L911,940 L912,939 L913,938 L918,937 L923,935 L924,934 L923,934 L922,934 L918,950 L915,966" id="Shape" fill="#92D8E4"></path>
                    <path d="M243,967 L258,967 L254,963 L250,958 L244,955 L238,952 L233,948 L229,944 L225,940 L221,935 L216,933 L211,931 L213,937 L216,943 L219,949 L222,955 L226,959 L231,963 L237,965 L243,967" id="Shape" fill="#105D6D"></path>
                    <path d="M652,967 L656,967 L639,958 L622,949 L622,952 L623,955 L629,958 L635,960 L641,963 L647,966 L649,967 L652,967" id="Shape" fill="#0FAFBB"></path>
                    <path d="M913,965 L915,966 L917,962 L920,957 L927,946 L935,934 L935,933 L930,933 L926,933 L925,934 L924,934 L923,935 L918,937 L913,938 L912,939 L911,940 L909,945 L907,950 L906,952 L906,953 L908,957 L911,961 L911,963 L912,964 L912,965 L913,965" id="Shape" fill="#BBD2DA"></path>
                    <path d="M696,961 L698,959 L696,957 L694,955 L692,952 L690,949 L688,948 L687,946 L685,946 L684,945 L683,941 L682,937 L681,935 L681,933 L679,928 L678,923 L677,922 L677,920 L677,918 L678,916 L675,915 L673,913 L672,915 L672,916 L671,918 L671,919 L671,925 L672,930 L671,930 L670,929 L669,929 L668,929 L665,926 L663,922 L661,921 L660,919 L659,919 L658,918 L657,921 L657,924 L658,930 L659,935 L658,937 L658,938 L677,950 L696,961" id="Shape" fill="#172A32"></path>
                    <path d="M593,945 L601,946 L599,944 L597,942 L598,939 L599,936 L595,937 L591,937 L584,939 L577,941 L583,943 L590,945 L591,945 L593,945" id="Shape" fill="#32AEBF"></path>
                    <path d="M684,945 L687,946 L690,944 L694,942 L694,943 L695,943 L698,939 L702,935 L702,934 L699,933 L697,932 L693,931 L690,929 L688,927 L687,924 L685,922 L683,919 L680,918 L678,916 L677,918 L677,920 L677,922 L678,923 L679,928 L681,933 L681,935 L682,937 L683,941 L684,945" id="Shape" fill="#0FAFBB"></path>
                    <path d="M702,934 L702,935 L687,922 L672,908 L671,909 L670,910 L669,910 L671,912 L673,913 L675,915 L678,916 L680,918 L683,919 L685,922 L687,924 L688,927 L690,929 L693,931 L697,932 L699,933 L702,934" id="Shape" fill="#000000"></path>
                    <path d="M670,929 L672,930 L671,925 L671,919 L671,918 L672,916 L672,915 L673,913 L671,912 L669,910 L670,910 L671,909 L672,908 L669,908 L666,908 L663,908 L661,908 L655,908 L650,908 L650,910 L651,911 L654,915 L658,918 L659,919 L660,919 L661,921 L663,922 L665,926 L668,929 L669,929 L670,929" id="Shape" fill="#0FAFBB"></path>
                    <path d="M974,928 L990,929 L994,927 L998,924 L996,924 L994,924 L987,926 L981,927 L977,927 L974,926 L976,924 L979,922 L981,921 L984,919 L986,917 L988,914 L989,912 L990,910 L986,913 L983,915 L977,918 L972,921 L973,925 L974,928" id="Shape" fill="#527A94"></path>
                    <path d="M994,924 L998,924 L1012,897 L1027,869 L1051,860 L1075,850 L1093,834 L1111,818 L1112,817 L1114,816 L1115,813 L1116,810 L1116,809 L1114,801 L1112,792 L1122,769 L1133,745 L1147,739 L1162,733 L1153,708 L1144,683 L1147,684 L1151,684 L1152,685 L1154,685 L1156,685 L1158,684 L1159,683 L1161,681 L1161,680 L1144,657 L1127,634 L1125,633 L1124,632 L1131,662 L1139,691 L1130,718 L1122,744 L1103,755 L1085,766 L1093,789 L1102,811 L1083,824 L1065,837 L1045,847 L1025,857 L1013,866 L1001,874 L993,873 L986,872 L984,870 L983,868 L986,889 L990,910 L989,912 L988,914 L986,917 L984,919 L981,921 L979,922 L976,924 L974,926 L977,927 L981,927 L987,926 L994,924" id="Shape" fill="#77A7B8"></path>
                    <path d="M192,925 L197,923 L193,920 L190,917 L192,917 L194,917 L193,917 L192,916 L188,915 L184,913 L182,912 L180,911 L176,910 L173,909 L173,910 L174,910 L177,915 L181,920 L186,923 L192,925" id="Shape" fill="#172A32"></path>
                    <path d="M225,924 L225,923 L206,911 L188,898 L179,876 L170,854 L162,826 L155,798 L155,796 L155,794 L154,790 L154,786 L154,782 L154,778 L154,774 L155,770 L155,769 L155,767 L155,748 L155,728 L154,729 L153,729 L152,730 L151,731 L146,733 L142,735 L141,737 L141,738 L140,742 L139,746 L139,748 L140,749 L141,752 L142,754 L144,757 L146,760 L146,763 L146,765 L147,769 L148,772 L147,796 L146,820 L147,824 L149,827 L150,828 L151,828 L152,832 L153,836 L153,837 L153,838 L157,866 L162,894 L164,899 L167,903 L168,904 L169,905 L171,907 L173,909 L176,910 L180,911 L182,912 L184,913 L188,915 L192,916 L193,917 L194,917 L199,920 L204,922 L214,923 L225,924" id="Shape" fill="#527A94"></path>
                    <path d="M225,923 L233,920 L233,919 L234,917 L239,914 L244,910 L245,904 L246,898 L225,885 L204,871 L203,871 L202,870 L188,859 L174,847 L174,836 L175,825 L174,819 L174,813 L173,806 L172,798 L171,794 L170,789 L167,789 L164,788 L163,789 L162,789 L159,793 L156,797 L155,798 L162,826 L170,854 L179,876 L188,898 L206,911 L225,923" id="Shape" fill="#77A7B8"></path>
                    <path d="M233,920 L245,920 L248,916 L251,911 L248,905 L246,898 L245,904 L244,910 L239,914 L234,917 L233,919 L233,920" id="Shape" fill="#318395"></path>
                    <path d="M1025,857 L1065,837 L1083,824 L1102,811 L1093,789 L1085,766 L1103,755 L1122,744 L1130,718 L1139,691 L1131,662 L1124,632 L1123,630 L1122,627 L1121,627 L1126,612 L1131,596 L1137,573 L1143,549 L1150,531 L1158,512 L1158,491 L1158,469 L1139,454 L1121,438 L1108,417 L1096,395 L1103,374 L1110,352 L1097,330 L1084,308 L1068,306 L1052,303 L1048,281 L1044,259 L1037,239 L1030,219 L1006,208 L983,197 L965,181 L947,165 L925,152 L904,139 L880,130 L857,120 L838,112 L820,103 L800,96 L781,89 L756,80 L732,70 L710,64 L689,58 L662,56 L635,54 L621,71 L607,88 L602,110 L598,132 L601,157 L604,182 L591,167 L578,151 L565,141 L552,131 L538,151 L525,171 L508,187 L492,202 L522,222 L553,242 L610,249 L668,255 L671,255 L675,254 L677,254 L680,253 L704,265 L728,277 L738,300 L749,323 L762,345 L776,366 L787,388 L798,409 L815,427 L833,444 L848,464 L863,484 L858,506 L854,528 L867,544 L881,559 L901,571 L922,583 L931,608 L940,633 L943,664 L947,694 L952,723 L957,751 L966,776 L975,801 L988,838 L1001,874 L1013,866 L1025,857" id="Shape" fill="#BBD2DA"></path>
                    <path d="M684,866 L656,825 L630,809 L604,792 L616,835 L628,877 L656,872 L684,866" id="Shape" fill="#4FAEBF"></path>
                    <path d="M163,902 L167,903 L164,899 L162,894 L157,866 L153,838 L153,843 L154,847 L154,849 L155,851 L155,856 L156,860 L154,861 L152,862 L152,868 L153,873 L154,875 L155,876 L155,882 L156,887 L156,889 L156,890 L158,895 L160,900 L161,901 L163,902" id="Shape" fill="#334E5F"></path>
                    <path d="M155,889 L156,890 L156,889 L156,887 L155,882 L155,876 L154,875 L153,873 L152,868 L152,862 L154,861 L156,860 L155,856 L155,851 L154,849 L154,847 L153,843 L153,838 L153,837 L153,836 L152,832 L151,828 L150,828 L149,827 L149,829 L149,831 L150,839 L152,846 L151,852 L150,857 L150,865 L151,872 L152,879 L154,886 L154,888 L155,889" id="Shape" fill="#172A32"></path>
                    <path d="M576,879 L589,877 L591,871 L594,865 L591,860 L588,855 L582,855 L577,855 L574,861 L571,866 L573,872 L575,878 L575,879 L576,879" id="Shape" fill="#4FAEBF"></path>
                    <path d="M202,870 L196,864 L192,859 L188,854 L185,848 L183,842 L180,837 L177,831 L176,828 L175,825 L174,836 L174,847 L188,859 L202,870" id="Shape" fill="#4FAEBF"></path>
                    <path d="M926,874 L939,872 L946,871 L954,870 L961,869 L968,867 L947,869 L926,870 L925,868 L924,866 L921,864 L919,862 L919,863 L919,864 L922,869 L926,874" id="Shape" fill="#32AEBF"></path>
                    <path d="M1001,874 L975,801 L966,776 L957,751 L952,723 L947,694 L943,664 L940,633 L931,608 L922,583 L901,571 L881,559 L867,544 L854,528 L858,506 L863,484 L848,464 L833,444 L815,427 L798,409 L787,388 L776,366 L762,345 L749,323 L738,300 L728,277 L704,265 L680,253 L702,273 L725,293 L730,321 L735,348 L741,370 L747,391 L762,411 L777,431 L805,466 L834,501 L810,510 L787,519 L781,520 L775,520 L773,520 L772,520 L771,521 L770,521 L736,540 L702,558 L685,582 L668,605 L675,632 L683,659 L697,679 L712,698 L729,699 L747,700 L745,679 L743,658 L739,636 L736,614 L716,614 L696,613 L704,594 L713,575 L733,561 L753,547 L778,541 L804,535 L811,556 L819,576 L813,593 L808,610 L821,624 L834,637 L852,647 L870,657 L872,637 L874,617 L864,599 L855,580 L882,595 L909,610 L918,637 L928,663 L935,696 L942,729 L946,756 L950,782 L949,783 L948,783 L941,810 L935,836 L956,845 L978,854 L979,855 L980,855 L981,862 L983,868 L984,870 L986,872 L993,873 L1001,874" id="Shape" fill="#92D8E4"></path>
                    <path d="M1065,865 L1065,864 L1064,864 L1063,864 L1062,864 L1056,864 L1051,863 L1050,863 L1049,863 L1048,862 L1048,861 L1056,863 L1065,865" id="Shape" fill="#334E5F"></path>
                    <path d="M719,871 L727,866 L724,861 L721,855 L716,857 L712,858 L714,865 L716,871 L717,871 L719,871" id="Shape" fill="#172A32"></path>
                    <path d="M968,867 L977,866 L977,860 L978,854 L956,845 L935,836 L941,810 L948,783 L945,756 L942,729 L935,696 L928,663 L918,637 L909,610 L891,614 L874,617 L872,637 L870,657 L852,647 L834,637 L820,632 L806,626 L774,642 L743,658 L745,679 L747,700 L729,699 L712,698 L697,679 L683,659 L675,632 L668,605 L685,582 L702,558 L736,540 L770,521 L771,521 L772,520 L773,520 L775,520 L781,520 L787,519 L810,510 L834,501 L805,466 L777,431 L762,411 L747,391 L741,370 L735,348 L730,321 L725,293 L700,288 L675,282 L653,271 L632,260 L602,257 L573,253 L543,251 L513,248 L476,246 L440,243 L468,245 L497,246 L525,253 L554,259 L585,260 L617,261 L620,262 L624,263 L649,277 L674,291 L694,306 L714,320 L719,346 L724,372 L739,391 L755,410 L771,429 L787,448 L794,470 L801,492 L779,503 L757,513 L735,521 L714,528 L698,547 L683,566 L673,590 L663,614 L671,640 L680,665 L695,685 L710,704 L734,707 L758,710 L760,692 L762,673 L786,666 L810,659 L834,666 L858,673 L878,661 L899,649 L907,675 L915,701 L915,704 L916,706 L915,708 L914,709 L912,708 L910,707 L909,707 L909,706 L925,740 L941,773 L933,801 L925,828 L922,845 L919,862 L921,864 L924,866 L925,868 L926,870 L947,869 L968,867" id="Shape" fill="#4FAEBF"></path>
                    <path d="M1051,863 L1062,864 L1063,864 L1064,864 L1065,864 L1071,863 L1077,861 L1076,859 L1075,856 L1074,857 L1073,857 L1070,858 L1067,858 L1062,858 L1057,858 L1054,859 L1051,860 L1049,861 L1048,861 L1048,862 L1049,863 L1050,863 L1051,863" id="Shape" fill="#105D6D"></path>
                    <path d="M677,842 L673,833 L670,827 L668,821 L664,816 L660,811 L658,804 L657,797 L656,797 L655,802 L655,807 L666,825 L677,842" id="Shape" fill="#0FAFBB"></path>
                    <path d="M608,838 L613,839 L614,836 L615,832 L608,808 L601,783 L599,788 L597,793 L597,800 L598,807 L600,814 L602,821 L603,826 L605,831 L606,835 L608,838" id="Shape" fill="#0FAFBB"></path>
                    <path d="M656,825 L655,816 L655,812 L655,807 L655,802 L656,797 L632,785 L609,773 L609,774 L609,775 L606,780 L604,784 L604,785 L604,786 L604,789 L604,792 L630,809 L656,825" id="Shape" fill="#92D8E4"></path>
                    <path d="M146,820 L148,772 L147,775 L147,778 L147,782 L147,786 L147,792 L147,797 L145,797 L143,797 L142,794 L142,790 L141,789 L141,787 L139,782 L138,776 L137,775 L137,774 L134,770 L131,766 L130,765 L129,764 L125,761 L122,757 L121,757 L120,756 L116,753 L113,749 L112,749 L111,748 L107,746 L103,744 L101,744 L100,743 L95,741 L90,739 L89,738 L89,737 L85,734 L81,731 L80,730 L79,729 L77,727 L76,725 L72,730 L69,734 L95,748 L121,761 L131,786 L141,811 L143,816 L146,820" id="Shape" fill="#172A32"></path>
                    <path d="M912,810 L923,808 L925,802 L927,795 L926,792 L926,788 L922,793 L918,797 L915,803 L912,808 L912,809 L912,810" id="Shape" fill="#172A32"></path>
                    <path d="M143,797 L147,797 L147,792 L147,786 L147,782 L147,778 L147,776 L147,774 L146,773 L145,771 L141,768 L138,765 L136,765 L134,764 L131,761 L128,758 L127,757 L126,755 L123,752 L120,748 L119,747 L118,746 L114,743 L111,740 L110,739 L109,737 L106,734 L103,731 L102,729 L102,727 L101,727 L101,726 L98,723 L95,719 L94,718 L94,717 L91,713 L88,708 L87,708 L87,707 L84,702 L82,697 L81,697 L81,696 L80,696 L80,695 L78,692 L76,689 L76,688 L74,687 L73,686 L70,683 L68,679 L68,681 L68,682 L68,687 L69,692 L68,693 L68,694 L68,700 L68,706 L68,707 L69,708 L71,714 L74,720 L74,722 L75,724 L75,725 L76,725 L77,727 L79,729 L80,730 L81,731 L85,734 L89,737 L89,738 L90,739 L95,741 L100,743 L101,744 L103,744 L107,746 L111,748 L112,749 L113,749 L116,753 L120,756 L121,757 L122,757 L125,761 L129,764 L130,765 L131,766 L134,770 L137,774 L137,775 L138,776 L139,782 L141,787 L141,789 L142,790 L142,794 L143,797" id="Shape" fill="#000000"></path>
                    <path d="M155,798 L156,797 L159,793 L162,789 L163,789 L164,788 L167,789 L170,789 L169,786 L169,783 L169,778 L169,772 L166,773 L163,773 L162,773 L161,772 L158,770 L155,767 L155,769 L155,770 L154,774 L154,778 L154,782 L154,786 L154,790 L155,794 L155,796 L155,798" id="Shape" fill="#318395"></path>
                    <path d="M948,783 L950,782 L946,756 L942,729 L945,756 L948,783" id="Shape" fill="#77A7B8"></path>
                    <path d="M147,778 L148,772 L147,769 L146,765 L146,763 L146,760 L144,757 L142,754 L141,752 L140,749 L139,748 L139,746 L137,743 L136,739 L136,737 L136,735 L136,731 L137,726 L136,725 L136,724 L135,722 L134,719 L131,721 L129,723 L124,727 L119,730 L118,729 L117,728 L116,727 L116,726 L115,725 L114,723 L112,722 L111,720 L109,717 L107,713 L105,712 L103,711 L101,710 L100,708 L100,717 L101,726 L101,727 L102,727 L102,729 L103,731 L106,734 L109,737 L110,739 L111,740 L114,743 L118,746 L119,747 L120,748 L123,752 L126,755 L127,757 L128,758 L131,761 L134,764 L136,765 L138,765 L141,768 L145,771 L146,773 L147,774 L147,776 L147,778" id="Shape" fill="#334E5F"></path>
                    <path d="M161,772 L163,773 L166,773 L169,772 L169,769 L170,766 L172,760 L174,753 L174,745 L175,737 L174,737 L174,736 L174,735 L170,731 L167,727 L166,727 L165,726 L165,725 L165,724 L163,724 L162,724 L159,725 L157,726 L156,727 L155,728 L155,748 L155,767 L158,770 L161,772" id="Shape" fill="#77A7B8"></path>
                    <path d="M941,773 L909,706 L907,701 L906,695 L905,695 L905,694 L903,688 L902,681 L902,680 L904,675 L907,669 L907,670 L908,677 L910,683 L910,684 L910,685 L911,692 L913,698 L914,698 L914,700 L915,701 L907,675 L899,649 L878,661 L858,673 L834,666 L810,659 L786,666 L762,673 L760,692 L758,710 L734,707 L710,704 L695,685 L680,665 L671,640 L663,614 L673,590 L683,566 L698,547 L714,528 L735,521 L757,513 L779,503 L801,492 L794,470 L787,448 L771,429 L755,410 L739,391 L724,372 L719,346 L714,320 L694,306 L674,291 L649,277 L624,263 L647,279 L671,295 L690,311 L710,326 L714,353 L718,379 L725,388 L733,396 L750,415 L768,434 L768,435 L769,436 L771,441 L773,446 L776,450 L780,453 L781,454 L782,454 L785,458 L788,461 L789,462 L791,463 L794,466 L798,469 L798,470 L799,471 L784,490 L770,509 L742,511 L715,513 L700,534 L686,554 L671,574 L656,594 L661,622 L667,650 L675,665 L683,680 L694,695 L705,710 L706,711 L707,712 L708,713 L709,713 L714,715 L720,717 L721,718 L722,718 L723,721 L724,723 L725,725 L726,726 L731,728 L736,730 L737,730 L739,730 L744,731 L750,731 L752,731 L754,731 L756,731 L759,731 L760,730 L762,729 L761,728 L761,727 L762,726 L765,722 L769,717 L769,716 L769,715 L773,714 L778,713 L780,713 L782,713 L789,713 L797,712 L800,712 L804,711 L818,701 L832,690 L855,711 L878,732 L893,733 L909,733 L922,748 L935,763 L938,768 L941,773" id="Shape" fill="#32AEBF"></path>
                    <path d="M736,760 L747,756 L751,752 L756,748 L760,744 L765,739 L762,739 L759,738 L754,742 L749,745 L744,749 L739,753 L737,757 L736,760" id="Shape" fill="#0FAFBB"></path>
                    <path d="M139,746 L141,738 L141,737 L142,735 L146,733 L151,731 L152,730 L153,729 L154,729 L155,728 L156,727 L157,726 L159,725 L162,724 L163,724 L165,724 L168,721 L172,718 L171,718 L170,718 L169,717 L166,717 L164,717 L160,718 L157,718 L157,719 L151,720 L146,721 L145,721 L144,720 L141,718 L139,715 L137,713 L136,711 L133,708 L131,705 L129,704 L127,702 L124,700 L121,698 L118,697 L116,696 L114,695 L112,693 L111,693 L110,692 L107,691 L105,690 L103,689 L102,687 L98,685 L95,682 L92,680 L90,677 L88,676 L86,674 L85,674 L85,673 L85,678 L85,683 L87,688 L90,692 L90,693 L91,694 L93,699 L96,703 L97,704 L98,704 L99,706 L100,708 L101,710 L103,711 L105,712 L107,713 L109,717 L111,720 L112,722 L114,723 L115,725 L116,726 L119,723 L122,719 L126,717 L131,715 L132,717 L134,719 L135,722 L136,724 L136,725 L137,726 L136,731 L136,735 L136,737 L136,739 L137,743 L139,746" id="Shape" fill="#000000"></path>
                    <path d="M836,749 L848,746 L852,744 L856,741 L863,740 L871,738 L863,739 L855,739 L848,739 L842,739 L842,737 L843,734 L844,734 L840,741 L836,747 L834,747 L833,746 L834,748 L836,749" id="Shape" fill="#172A32"></path>
                    <path d="M844,734 L847,734 L855,734 L864,734 L871,733 L878,732 L855,711 L832,690 L818,701 L804,711 L818,729 L833,746 L834,747 L836,747 L840,741 L844,734" id="Shape" fill="#0FAFBB"></path>
                    <path d="M76,725 L75,724 L74,723 L73,721 L69,726 L66,730 L67,732 L69,734 L72,730 L76,725" id="Shape" fill="#334E5F"></path>
                    <path d="M800,742 L810,739 L807,733 L805,727 L801,722 L797,717 L789,716 L782,715 L780,714 L778,713 L773,714 L769,715 L769,716 L769,717 L765,722 L762,726 L761,727 L761,728 L762,729 L766,727 L770,725 L775,725 L780,725 L784,729 L788,732 L793,736 L798,739 L799,741 L800,742" id="Shape" fill="#0FAFBB"></path>
                    <path d="M746,738 L724,723 L723,721 L722,718 L721,718 L720,717 L714,715 L709,713 L708,713 L707,712 L706,711 L705,710 L703,710 L702,709 L701,709 L700,709 L699,708 L698,707 L696,705 L694,702 L707,717 L721,731 L733,735 L746,738" id="Shape" fill="#172A32"></path>
                    <path d="M746,738 L752,736 L755,734 L759,731 L756,731 L754,731 L752,731 L750,731 L744,731 L739,730 L737,730 L736,730 L731,728 L726,726 L725,725 L724,723 L735,731 L746,738" id="Shape" fill="#0FAFBB"></path>
                    <path d="M174,736 L174,737 L175,737 L176,731 L177,724 L179,718 L182,712 L185,706 L188,700 L191,695 L195,690 L195,688 L195,685 L190,689 L185,693 L180,697 L175,700 L174,700 L174,706 L175,711 L172,714 L169,717 L170,718 L171,718 L172,718 L168,721 L165,724 L165,725 L165,726 L166,727 L167,727 L170,731 L174,735 L174,736" id="Shape" fill="#318395"></path>
                    <path d="M100,708 L98,704 L97,704 L96,703 L93,699 L91,694 L90,693 L90,692 L87,688 L85,683 L84,684 L83,684 L81,690 L80,695 L80,696 L81,696 L81,697 L82,697 L84,702 L87,707 L87,708 L88,708 L91,713 L94,717 L94,718 L95,719 L98,723 L101,726 L100,717 L100,708" id="Shape" fill="#527A94"></path>
                    <path d="M1169,691 L1195,682 L1192,683 L1190,684 L1186,686 L1183,687 L1179,687 L1176,687 L1171,688 L1166,688 L1163,688 L1161,688 L1158,705 L1155,722 L1156,724 L1157,726 L1163,709 L1169,691" id="Shape" fill="#172A32"></path>
                    <path d="M66,730 L73,721 L74,723 L75,724 L74,722 L74,720 L71,714 L69,708 L68,707 L68,706 L68,700 L68,694 L68,693 L69,692 L68,687 L68,682 L68,681 L68,679 L70,683 L73,686 L74,687 L76,688 L73,683 L71,678 L70,678 L70,677 L68,672 L67,666 L62,692 L57,717 L61,724 L66,730" id="Shape" fill="#172A32"></path>
                    <path d="M119,730 L129,723 L131,721 L134,719 L132,717 L131,715 L126,717 L122,719 L119,723 L116,726 L116,727 L117,728 L118,729 L119,730" id="Shape" fill="#172A32"></path>
                    <path d="M1052,704 L1058,656 L1045,638 L1032,619 L1028,598 L1024,577 L1017,556 L1010,534 L994,527 L979,519 L971,543 L963,567 L961,600 L960,633 L966,661 L972,689 L992,704 L1012,718 L1032,711 L1052,704" id="Shape" fill="#F8FEFD"></path>
                    <path d="M1161,688 L1161,687 L1158,687 L1156,687 L1155,686 L1154,685 L1152,685 L1151,684 L1151,685 L1151,686 L1150,694 L1150,702 L1150,710 L1151,717 L1153,720 L1155,722 L1158,705 L1161,688" id="Shape" fill="#334E5F"></path>
                    <path d="M146,721 L157,719 L157,718 L156,718 L134,706 L112,693 L114,695 L116,696 L118,697 L121,698 L124,700 L127,702 L129,704 L131,705 L133,708 L136,711 L137,713 L139,715 L141,718 L144,720 L145,721 L146,721" id="Shape" fill="#527A94"></path>
                    <path d="M156,718 L157,718 L160,718 L164,717 L166,717 L169,717 L172,714 L175,711 L174,706 L174,700 L169,693 L164,685 L182,682 L200,678 L202,673 L204,667 L205,667 L206,667 L209,662 L212,657 L213,656 L215,654 L225,631 L235,607 L243,577 L252,546 L252,538 L253,529 L254,521 L255,513 L255,508 L256,503 L260,480 L265,456 L281,421 L298,385 L299,384 L300,382 L301,378 L303,374 L310,362 L317,349 L340,320 L363,291 L364,290 L365,289 L370,286 L375,282 L378,279 L382,275 L398,257 L415,239 L420,241 L425,242 L426,242 L428,242 L434,243 L440,243 L476,246 L513,248 L543,251 L573,253 L602,257 L632,260 L653,271 L675,282 L700,288 L725,293 L702,273 L680,253 L677,254 L675,254 L671,255 L668,255 L610,249 L553,242 L522,222 L492,202 L508,187 L525,171 L538,151 L552,131 L565,141 L578,151 L591,167 L604,182 L601,157 L598,132 L602,110 L607,88 L621,71 L635,54 L662,56 L689,58 L710,64 L732,70 L756,80 L781,89 L800,96 L820,103 L838,112 L857,120 L880,130 L904,139 L925,152 L947,165 L965,181 L983,197 L1006,208 L1030,219 L1037,239 L1044,259 L1048,281 L1052,303 L1068,306 L1084,308 L1097,330 L1110,352 L1103,374 L1096,395 L1108,417 L1121,438 L1139,454 L1158,469 L1158,491 L1158,512 L1150,531 L1143,549 L1137,573 L1131,596 L1126,612 L1121,627 L1120,621 L1119,615 L1122,611 L1125,607 L1133,604 L1142,600 L1141,597 L1140,593 L1137,587 L1134,581 L1132,574 L1131,567 L1132,567 L1156,571 L1180,574 L1180,572 L1180,569 L1181,567 L1182,565 L1184,562 L1187,559 L1187,560 L1188,560 L1194,560 L1201,560 L1200,534 L1200,508 L1198,506 L1197,503 L1184,487 L1171,471 L1169,470 L1168,468 L1158,448 L1149,428 L1145,424 L1141,419 L1136,417 L1132,414 L1119,409 L1106,403 L1112,400 L1119,397 L1118,395 L1117,392 L1116,385 L1116,377 L1117,379 L1119,380 L1122,381 L1125,382 L1125,381 L1126,380 L1127,377 L1129,373 L1126,340 L1124,307 L1119,284 L1115,260 L1106,247 L1098,234 L1078,224 L1059,214 L1052,214 L1045,213 L1044,212 L1043,211 L1041,211 L1040,211 L1037,209 L1034,206 L1033,206 L1032,206 L1031,206 L1030,205 L1024,205 L1019,204 L1017,204 L1016,203 L997,193 L979,182 L960,164 L941,145 L921,131 L902,116 L899,115 L896,114 L893,112 L890,109 L891,108 L893,107 L857,92 L821,76 L818,71 L816,65 L813,60 L810,54 L807,50 L804,45 L803,45 L802,44 L799,40 L797,36 L796,35 L796,33 L792,30 L789,26 L787,26 L786,26 L783,25 L781,23 L768,25 L755,26 L774,42 L793,58 L789,66 L785,74 L767,67 L750,60 L723,53 L697,45 L679,46 L661,46 L645,40 L630,33 L626,32 L623,31 L621,31 L620,30 L619,34 L619,38 L602,45 L586,52 L563,54 L540,56 L522,57 L504,58 L495,83 L486,107 L471,128 L456,149 L455,150 L437,153 L419,155 L420,144 L422,132 L439,108 L457,83 L456,68 L455,53 L439,70 L424,86 L424,85 L419,89 L415,92 L411,96 L407,99 L406,102 L406,105 L403,109 L400,112 L399,114 L398,115 L396,118 L394,121 L395,127 L396,132 L395,135 L395,138 L393,141 L392,143 L391,142 L390,140 L389,140 L388,140 L386,141 L384,141 L382,145 L381,148 L381,149 L381,150 L377,153 L373,156 L353,171 L333,186 L307,209 L281,231 L271,253 L262,274 L239,292 L216,309 L201,322 L187,334 L184,338 L182,341 L179,347 L176,352 L175,356 L174,360 L168,384 L163,408 L147,426 L131,443 L128,446 L126,449 L112,473 L98,496 L99,514 L101,531 L107,543 L113,555 L117,584 L122,612 L122,614 L122,615 L118,619 L114,622 L110,627 L107,631 L91,647 L75,662 L88,675 L102,687 L103,689 L105,690 L107,691 L110,692 L111,693 L112,693 L134,706 L156,718" id="Shape" fill="#77A7B8"></path>
                    <path d="M702,709 L705,710 L694,695 L683,680 L684,684 L686,688 L689,694 L692,699 L693,701 L694,702 L696,705 L698,707 L699,708 L700,709 L701,709 L702,709" id="Shape" fill="#0FAFBB"></path>
                    <path d="M914,709 L916,706 L915,704 L915,701 L914,700 L914,698 L913,698 L911,692 L910,685 L910,684 L910,683 L908,677 L907,670 L907,669 L904,675 L902,680 L902,681 L903,688 L905,694 L905,695 L906,695 L907,701 L909,706 L909,707 L910,707 L912,708 L914,709" id="Shape" fill="#000000"></path>
                    <path d="M80,695 L83,684 L84,684 L85,683 L85,678 L85,673 L83,671 L81,669 L79,669 L77,668 L73,667 L70,666 L70,664 L70,662 L69,663 L68,664 L67,665 L67,666 L68,672 L70,677 L70,678 L71,678 L73,683 L76,688 L76,689 L78,692 L80,695" id="Shape" fill="#334E5F"></path>
                    <path d="M1161,687 L1161,688 L1163,688 L1166,688 L1171,688 L1176,687 L1179,687 L1183,687 L1186,686 L1190,684 L1192,683 L1195,682 L1198,680 L1202,678 L1197,679 L1192,679 L1185,680 L1178,680 L1169,680 L1161,680 L1161,681 L1159,683 L1158,684 L1156,685 L1154,685 L1155,686 L1156,687 L1158,687 L1161,687" id="Shape" fill="#105D6D"></path>
                    <path d="M102,687 L75,662 L91,647 L107,631 L104,630 L102,629 L101,630 L97,630 L93,629 L81,646 L70,662 L70,664 L70,666 L73,667 L77,668 L79,669 L81,669 L83,671 L85,673 L85,674 L86,674 L88,676 L90,677 L92,680 L95,682 L98,685 L102,687" id="Shape" fill="#527A94"></path>
                    <path d="M200,678 L210,672 L214,668 L219,664 L222,659 L226,653 L226,650 L226,646 L225,646 L223,649 L222,652 L218,653 L215,654 L213,656 L212,657 L209,662 L206,667 L205,667 L204,667 L202,673 L200,678" id="Shape" fill="#0C8595"></path>
                    <path d="M61,658 L66,648 L68,642 L70,635 L74,632 L78,629 L77,628 L77,626 L68,606 L60,586 L60,590 L61,593 L62,601 L63,609 L62,616 L61,622 L60,630 L59,637 L59,646 L59,655 L60,657 L61,658" id="Shape" fill="#172A32"></path>
                    <path d="M546,624 L549,601 L545,589 L541,577 L535,585 L529,592 L527,600 L525,607 L504,618 L483,628 L496,642 L509,656 L527,640 L546,624" id="Shape" fill="#0FAFBB"></path>
                    <path d="M743,658 L806,626 L820,632 L834,637 L821,624 L808,610 L772,612 L736,614 L739,636 L743,658" id="Shape" fill="#77A7B8"></path>
                    <path d="M222,652 L225,646 L226,646 L233,619 L240,592 L246,569 L252,546 L243,577 L235,607 L225,631 L215,654 L218,653 L222,652" id="Shape" fill="#318395"></path>
                    <path d="M1176,630 L1186,626 L1178,622 L1171,617 L1153,618 L1136,618 L1134,622 L1133,626 L1134,629 L1136,631 L1142,640 L1148,649 L1162,640 L1176,630" id="Shape" fill="#172A32"></path>
                    <path d="M525,607 L512,606 L508,606 L504,605 L505,607 L507,609 L505,610 L503,610 L498,612 L494,613 L491,613 L489,613 L487,614 L486,614 L483,616 L481,618 L479,620 L477,622 L477,624 L477,625 L479,626 L481,627 L482,628 L483,628 L504,618 L525,607" id="Shape" fill="#32AEBF"></path>
                    <path d="M1136,631 L1142,639 L1145,644 L1148,649 L1142,640 L1136,631" id="Shape" fill="#334E5F"></path>
                    <path d="M808,610 L819,576 L811,556 L804,535 L778,541 L753,547 L733,561 L713,575 L704,594 L696,613 L716,614 L736,614 L772,612 L808,610" id="Shape" fill="#BBD2DA"></path>
                    <path d="M85,630 L92,622 L92,615 L92,607 L92,599 L93,590 L94,588 L95,585 L86,603 L77,621 L77,624 L78,626 L81,628 L84,630 L85,630" id="Shape" fill="#318395"></path>
                    <path d="M107,631 L114,622 L118,619 L122,615 L121,615 L117,610 L114,604 L110,603 L107,602 L105,609 L104,616 L99,621 L95,625 L94,627 L93,629 L97,630 L101,630 L102,629 L104,630 L107,631" id="Shape" fill="#318395"></path>
                    <path d="M467,627 L477,625 L477,624 L477,622 L479,620 L481,618 L483,616 L486,614 L481,615 L476,615 L475,614 L474,612 L474,611 L474,609 L472,612 L470,615 L469,616 L468,617 L462,618 L457,619 L455,619 L454,619 L459,622 L464,624 L465,626 L467,627" id="Shape" fill="#172A32"></path>
                    <path d="M77,626 L78,626 L77,624 L77,621 L74,589 L71,556 L70,556 L69,555 L68,553 L68,551 L67,547 L66,543 L65,540 L65,537 L64,533 L64,529 L62,527 L61,525 L60,524 L60,523 L59,523 L58,522 L56,520 L54,517 L52,518 L50,518 L49,520 L49,522 L53,548 L57,573 L57,575 L58,576 L59,581 L60,586 L68,606 L77,626" id="Shape" fill="#334E5F"></path>
                    <path d="M1171,617 L1160,611 L1154,609 L1148,606 L1145,603 L1142,600 L1133,604 L1125,607 L1128,610 L1131,612 L1133,615 L1136,618 L1153,618 L1171,617" id="Shape" fill="#527A94"></path>
                    <path d="M77,621 L95,585 L96,584 L97,583 L100,578 L103,572 L106,567 L110,561 L111,558 L113,555 L107,543 L101,531 L99,514 L98,496 L112,473 L126,449 L111,470 L97,491 L91,490 L85,488 L79,489 L74,489 L72,491 L71,492 L67,495 L64,497 L62,498 L61,499 L61,502 L62,504 L66,507 L70,509 L71,511 L72,512 L73,514 L74,515 L76,516 L79,517 L83,519 L87,520 L89,520 L92,519 L93,523 L95,527 L94,530 L94,532 L92,536 L90,539 L87,540 L85,541 L81,542 L78,543 L76,545 L75,546 L74,551 L73,555 L72,556 L71,556 L74,589 L77,621" id="Shape" fill="#527A94"></path>
                    <path d="M454,619 L457,619 L462,618 L468,617 L469,616 L470,615 L472,612 L474,609 L476,608 L478,607 L482,605 L486,602 L487,602 L489,601 L494,602 L499,602 L500,603 L502,603 L503,604 L504,605 L508,606 L512,606 L518,607 L525,607 L527,600 L529,592 L513,586 L498,580 L475,595 L453,610 L447,609 L442,608 L433,588 L425,568 L428,554 L432,539 L430,541 L429,542 L430,543 L432,543 L438,543 L444,542 L443,543 L442,544 L441,544 L430,566 L420,587 L437,603 L454,619" id="Shape" fill="#4FAEBF"></path>
                    <path d="M1214,618 L1218,614 L1216,613 L1214,611 L1211,606 L1208,600 L1206,597 L1204,593 L1203,595 L1203,596 L1202,597 L1202,598 L1199,599 L1196,599 L1198,602 L1200,605 L1203,610 L1207,615 L1207,616 L1208,617 L1209,617 L1211,617 L1212,618 L1214,618" id="Shape" fill="#105D6D"></path>
                    <path d="M874,617 L909,610 L882,595 L855,580 L864,599 L874,617" id="Shape" fill="#77A7B8"></path>
                    <path d="M1193,609 L1191,596 L1193,598 L1196,599 L1199,599 L1202,598 L1202,597 L1203,596 L1203,595 L1204,593 L1202,588 L1201,583 L1200,575 L1200,567 L1200,564 L1201,560 L1194,560 L1188,560 L1188,562 L1189,564 L1189,566 L1189,568 L1188,574 L1187,579 L1187,581 L1187,583 L1184,586 L1182,589 L1181,588 L1180,586 L1180,583 L1180,580 L1180,577 L1180,574 L1156,571 L1132,567 L1154,584 L1177,601 L1185,605 L1193,609" id="Shape" fill="#318395"></path>
                    <path d="M476,615 L486,614 L487,614 L489,613 L491,613 L494,613 L498,612 L503,610 L505,610 L507,609 L505,607 L504,605 L503,604 L502,603 L500,603 L499,602 L494,602 L489,601 L487,602 L486,602 L482,605 L478,607 L476,608 L474,609 L474,611 L474,612 L475,614 L476,615" id="Shape" fill="#000000"></path>
                    <path d="M453,610 L471,570 L484,575 L498,580 L513,586 L529,592 L535,585 L541,577 L540,576 L540,574 L539,573 L539,572 L516,550 L493,527 L492,529 L492,530 L483,530 L475,530 L466,530 L457,530 L454,531 L451,531 L448,533 L445,535 L441,536 L438,537 L435,538 L432,539 L428,554 L425,568 L433,588 L442,608 L447,609 L453,610" id="Shape" fill="#92D8E4"></path>
                    <path d="M453,610 L498,580 L484,575 L471,570 L462,590 L453,610" id="Shape" fill="#77A7B8"></path>
                    <path d="M442,608 L425,568 L433,588 L442,608" id="Shape" fill="#77A7B8"></path>
                    <path d="M1108,607 L1114,598 L1111,594 L1109,590 L1105,595 L1101,600 L1104,604 L1108,607" id="Shape" fill="#77A7B8"></path>
                    <path d="M1164,607 L1163,599 L1159,595 L1155,590 L1150,590 L1146,589 L1149,594 L1153,599 L1157,603 L1162,607 L1163,607 L1164,607" id="Shape" fill="#334E5F"></path>
                    <path d="M446,604 L457,600 L461,596 L466,592 L464,586 L463,579 L459,575 L455,570 L447,571 L440,572 L436,578 L433,583 L435,589 L438,595 L442,600 L446,604" id="Shape" fill="#BBD2DA"></path>
                    <path d="M188,572 L194,534 L174,520 L155,506 L144,522 L133,538 L135,562 L138,586 L163,579 L188,572" id="Shape" fill="#BBD2DA"></path>
                    <path d="M1182,589 L1187,583 L1187,581 L1187,579 L1188,574 L1189,568 L1189,566 L1189,564 L1188,562 L1188,560 L1187,560 L1187,559 L1184,562 L1182,565 L1181,567 L1180,569 L1180,572 L1180,574 L1180,577 L1180,580 L1180,583 L1180,586 L1181,588 L1182,589" id="Shape" fill="#000000"></path>
                    <path d="M556,588 L558,577 L555,571 L553,565 L548,561 L544,556 L541,555 L538,553 L537,554 L537,556 L537,558 L537,560 L538,561 L539,562 L541,562 L541,564 L542,565 L543,566 L545,567 L547,574 L550,580 L553,584 L556,588" id="Shape" fill="#0FAFBB"></path>
                    <path d="M415,549 L429,545 L428,545 L427,544 L426,541 L425,538 L425,537 L425,536 L426,535 L428,534 L401,549 L375,563 L395,556 L415,549" id="Shape" fill="#0FAFBB"></path>
                    <path d="M57,573 L49,522 L47,524 L46,525 L43,525 L41,525 L41,521 L41,516 L41,514 L42,512 L42,507 L43,501 L42,499 L42,497 L44,495 L46,493 L55,489 L65,484 L49,493 L33,501 L42,524 L51,547 L54,560 L57,573" id="Shape" fill="#172A32"></path>
                    <path d="M539,572 L542,565 L541,564 L541,562 L539,562 L538,561 L518,543 L498,524 L480,524 L462,523 L464,523 L466,523 L475,523 L484,523 L488,525 L493,527 L516,550 L539,572" id="Shape" fill="#4FAEBF"></path>
                    <path d="M538,561 L537,558 L537,556 L537,554 L538,553 L516,532 L495,511 L471,516 L447,520 L454,522 L462,523 L480,524 L498,524 L518,543 L538,561" id="Shape" fill="#32AEBF"></path>
                    <path d="M1174,560 L1184,555 L1187,550 L1191,545 L1188,540 L1186,534 L1182,539 L1179,544 L1175,549 L1172,554 L1173,557 L1174,560" id="Shape" fill="#BBD2DA"></path>
                    <path d="M702,558 L770,521 L736,540 L702,558" id="Shape" fill="#77A7B8"></path>
                    <path d="M69,555 L71,556 L72,556 L73,555 L74,551 L75,546 L76,545 L78,543 L81,542 L85,541 L87,540 L90,539 L92,536 L94,532 L94,530 L95,527 L93,523 L92,519 L89,520 L87,520 L83,519 L79,517 L76,516 L74,515 L73,514 L72,512 L70,512 L68,511 L67,511 L63,510 L60,508 L58,506 L57,504 L54,502 L52,499 L50,497 L48,495 L47,494 L46,493 L44,495 L42,497 L42,499 L43,501 L42,507 L42,512 L41,514 L41,516 L41,521 L41,525 L43,525 L46,525 L47,524 L49,522 L49,520 L50,518 L52,518 L54,517 L56,520 L58,522 L59,523 L60,523 L60,520 L60,517 L62,518 L64,519 L68,521 L73,522 L75,523 L77,523 L79,526 L81,529 L78,530 L76,530 L72,531 L68,531 L66,530 L64,529 L64,533 L65,537 L65,540 L66,543 L67,547 L68,551 L68,553 L69,555" id="Shape" fill="#000000"></path>
                    <path d="M427,544 L429,545 L435,545 L441,544 L442,544 L443,543 L444,542 L438,543 L432,543 L430,543 L429,542 L430,541 L432,539 L435,538 L438,537 L441,536 L445,535 L448,533 L451,531 L444,532 L438,533 L433,534 L428,534 L426,535 L425,536 L425,537 L425,538 L426,541 L427,544" id="Shape" fill="#32AEBF"></path>
                    <path d="M834,501 L787,519 L810,510 L834,501" id="Shape" fill="#77A7B8"></path>
                    <path d="M68,531 L76,530 L78,530 L81,529 L79,526 L77,523 L75,523 L73,522 L68,521 L64,519 L62,518 L60,517 L60,520 L60,523 L60,524 L61,525 L62,527 L64,529 L66,530 L68,531" id="Shape" fill="#105D6D"></path>
                    <path d="M68,511 L72,512 L71,511 L70,509 L69,509 L69,508 L67,507 L66,506 L64,505 L62,504 L61,502 L61,499 L62,498 L64,497 L67,495 L71,492 L72,491 L74,489 L79,489 L85,488 L84,488 L83,487 L75,486 L68,485 L66,485 L65,484 L55,489 L46,493 L47,494 L48,495 L50,497 L52,499 L54,502 L57,504 L58,506 L60,508 L63,510 L67,511 L68,511" id="Shape" fill="#105D6D"></path>
                    <path d="M69,508 L70,509 L66,507 L62,504 L64,505 L66,506 L67,507 L69,508" id="Shape" fill="#318395"></path>
                    <path d="M256,503 L277,446 L285,420 L294,393 L296,389 L298,385 L281,421 L265,456 L260,480 L256,503" id="Shape" fill="#4FAEBF"></path>
                    <path d="M1197,503 L1193,494 L1190,489 L1187,483 L1183,478 L1179,473 L1175,472 L1171,471 L1184,487 L1197,503" id="Shape" fill="#527A94"></path>
                    <path d="M1196,485 L1197,473 L1193,468 L1190,463 L1185,459 L1181,454 L1178,453 L1176,452 L1177,455 L1178,457 L1179,458 L1180,458 L1178,462 L1177,465 L1177,467 L1178,469 L1183,473 L1189,476 L1192,481 L1196,485" id="Shape" fill="#334E5F"></path>
                    <path d="M789,482 L796,478 L797,475 L799,471 L798,470 L798,469 L794,466 L791,463 L789,462 L788,461 L785,458 L782,454 L781,454 L780,453 L780,454 L782,460 L784,465 L786,472 L789,478 L789,480 L789,482" id="Shape" fill="#172A32"></path>
                    <path d="M68,473 L83,473 L84,472 L79,472 L74,472 L73,472 L72,471 L72,470 L77,467 L83,464 L83,463 L76,463 L70,462 L63,464 L57,466 L55,469 L54,471 L61,472 L68,473" id="Shape" fill="#172A32"></path>
                    <path d="M74,472 L84,472 L86,472 L88,472 L85,468 L83,463 L83,464 L77,467 L72,470 L72,471 L73,472 L74,472" id="Shape" fill="#334E5F"></path>
                    <path d="M88,472 L103,471 L107,468 L111,464 L111,460 L111,456 L106,456 L102,455 L100,455 L99,455 L97,455 L95,454 L94,454 L94,453 L92,451 L91,449 L92,446 L93,443 L96,443 L99,442 L102,440 L105,438 L76,433 L48,428 L69,442 L91,455 L87,459 L83,463 L85,468 L88,472" id="Shape" fill="#172A32"></path>
                    <path d="M1168,468 L1177,465 L1178,462 L1180,458 L1179,458 L1178,457 L1177,455 L1176,452 L1162,440 L1149,428 L1158,448 L1168,468" id="Shape" fill="#527A94"></path>
                    <path d="M111,456 L123,427 L126,415 L129,403 L129,401 L129,398 L125,397 L122,395 L122,397 L122,399 L122,406 L122,412 L110,434 L99,455 L100,455 L102,455 L106,456 L111,456" id="Shape" fill="#105D6D"></path>
                    <path d="M95,454 L99,455 L110,434 L122,412 L121,415 L120,417 L117,423 L114,429 L109,433 L105,437 L105,438 L102,440 L99,442 L96,443 L93,443 L92,446 L91,449 L92,451 L94,453 L94,454 L95,454" id="Shape" fill="#334E5F"></path>
                    <path d="M131,443 L163,408 L168,384 L174,360 L174,337 L175,314 L167,339 L159,363 L147,387 L136,410 L133,427 L131,443" id="Shape" fill="#318395"></path>
                    <path d="M766,435 L769,436 L768,435 L768,434 L750,415 L733,396 L734,398 L735,400 L738,406 L742,411 L746,416 L750,420 L754,425 L759,429 L762,432 L766,435" id="Shape" fill="#0FAFBB"></path>
                    <path d="M1178,413 L1155,403 L1153,406 L1151,408 L1150,408 L1150,407 L1146,407 L1142,406 L1168,418 L1194,430 L1186,422 L1178,413" id="Shape" fill="#172A32"></path>
                    <path d="M1132,414 L1130,409 L1126,404 L1122,399 L1120,398 L1119,397 L1112,400 L1106,403 L1119,409 L1132,414" id="Shape" fill="#527A94"></path>
                    <path d="M1151,408 L1155,403 L1150,400 L1145,396 L1140,392 L1136,387 L1133,382 L1130,376 L1129,375 L1129,373 L1127,377 L1126,380 L1125,381 L1125,382 L1122,381 L1119,380 L1120,384 L1122,387 L1126,392 L1130,396 L1134,401 L1139,405 L1140,406 L1142,406 L1146,407 L1150,407 L1150,408 L1151,408" id="Shape" fill="#527A94"></path>
                    <path d="M129,403 L131,389 L131,383 L131,376 L131,374 L131,372 L128,377 L126,382 L124,389 L122,395 L125,397 L129,398 L129,401 L129,403" id="Shape" fill="#172A32"></path>
                    <path d="M254,365 L220,339 L206,357 L192,374 L223,370 L254,365" id="Shape" fill="#BBD2DA"></path>
                    <path d="M303,374 L308,364 L311,359 L315,354 L316,352 L318,349 L317,349 L310,362 L303,374" id="Shape" fill="#318395"></path>
                    <path d="M284,328 L266,308 L256,323 L247,338 L265,333 L284,328" id="Shape" fill="#BBD2DA"></path>
                    <path d="M150,349 L151,343 L152,326 L154,309 L148,310 L142,310 L146,330 L150,349" id="Shape" fill="#172A32"></path>
                    <path d="M317,349 L318,349 L335,325 L353,300 L358,296 L363,291 L340,320 L317,349" id="Shape" fill="#4FAEBF"></path>
                    <path d="M151,343 L150,330 L150,322 L151,314 L152,312 L154,309 L152,326 L151,343" id="Shape" fill="#105D6D"></path>
                    <path d="M187,334 L216,309 L217,305 L219,301 L218,301 L218,300 L220,296 L222,291 L223,290 L224,289 L219,291 L214,293 L209,297 L204,300 L199,304 L194,308 L191,314 L189,320 L185,325 L181,329 L184,332 L187,334" id="Shape" fill="#318395"></path>
                    <path d="M216,309 L262,274 L271,253 L281,231 L281,230 L272,249 L263,268 L243,279 L224,289 L223,290 L222,291 L220,296 L218,300 L218,301 L219,301 L217,305 L216,309" id="Shape" fill="#527A94"></path>
                    <path d="M1073,285 L1078,275 L1074,270 L1071,265 L1065,263 L1059,261 L1062,266 L1065,270 L1067,276 L1070,282 L1071,284 L1073,285" id="Shape" fill="#000000"></path>
                    <path d="M382,275 L391,269 L395,265 L400,261 L405,257 L410,253 L414,249 L419,245 L422,244 L425,242 L420,241 L415,239 L398,257 L382,275" id="Shape" fill="#4FAEBF"></path>
                    <path d="M1115,260 L1111,252 L1108,246 L1106,240 L1102,237 L1098,234 L1106,247 L1115,260" id="Shape" fill="#527A94"></path>
                    <path d="M1128,224 L1116,220 L1122,222 L1128,224" id="Shape" fill="#105D6D"></path>
                    <path d="M668,255 L553,242 L610,249 L668,255" id="Shape" fill="#92D8E4"></path>
                    <path d="M333,186 L333,184 L331,182 L329,180 L327,177 L326,174 L324,172 L322,170 L321,168 L320,165 L320,175 L321,184 L307,205 L293,226 L287,228 L281,230 L281,231 L307,209 L333,186" id="Shape" fill="#318395"></path>
                    <path d="M413,223 L425,220 L430,219 L435,217 L440,214 L445,211 L444,204 L443,196 L438,195 L434,194 L431,188 L429,181 L426,183 L423,184 L422,191 L422,197 L419,203 L416,208 L413,208 L411,208 L409,214 L408,219 L410,221 L413,223" id="Shape" fill="#527A94"></path>
                    <path d="M1045,213 L1059,214 L1059,213 L1059,212 L1059,210 L1059,207 L1059,206 L1059,205 L1054,203 L1049,200 L1048,200 L1047,199 L1041,198 L1035,197 L1034,197 L1033,196 L1026,196 L1020,196 L1021,197 L1022,198 L1026,202 L1030,205 L1031,206 L1032,206 L1033,206 L1034,206 L1037,209 L1040,211 L1041,211 L1043,211 L1044,212 L1045,213" id="Shape" fill="#527A94"></path>
                    <path d="M1043,195 L1038,193 L1035,193 L1032,192 L1024,191 L1017,190 L1012,190 L1008,189 L1013,192 L1019,195 L1019,196 L1020,196 L1026,196 L1033,196 L1034,197 L1035,197 L1041,198 L1047,199 L1048,200 L1049,200 L1054,203 L1059,205 L1059,206 L1059,207 L1062,208 L1066,209 L1054,202 L1043,195" id="Shape" fill="#105D6D"></path>
                    <path d="M1016,203 L1009,199 L1004,195 L1000,191 L993,189 L987,186 L983,184 L979,182 L997,193 L1016,203" id="Shape" fill="#527A94"></path>
                    <path d="M230,201 L242,198 L247,195 L253,192 L258,189 L264,185 L263,184 L262,182 L256,185 L250,187 L244,190 L238,193 L234,197 L230,201" id="Shape" fill="#172A32"></path>
                    <path d="M959,196 L956,188 L951,185 L946,181 L942,176 L938,171 L933,167 L929,163 L928,166 L927,168 L931,173 L936,177 L940,181 L945,185 L950,189 L956,192 L957,194 L959,196" id="Shape" fill="#77A7B8"></path>
                    <path d="M633,193 L642,187 L638,182 L635,177 L632,181 L629,185 L631,189 L633,193" id="Shape" fill="#77A7B8"></path>
                    <path d="M373,156 L356,149 L338,157 L320,165 L321,168 L322,170 L324,172 L326,174 L327,177 L329,180 L331,182 L333,184 L333,185 L333,186 L353,171 L373,156" id="Shape" fill="#527A94"></path>
                    <path d="M295,161 L270,126 L253,109 L237,92 L248,111 L260,129 L270,153 L281,177 L288,169 L295,161" id="Shape" fill="#172A32"></path>
                    <path d="M455,150 L446,157 L438,157 L431,157 L426,153 L421,149 L421,142 L421,134 L421,133 L422,132 L420,144 L419,155 L437,153 L455,150" id="Shape" fill="#527A94"></path>
                    <path d="M373,156 L381,150 L381,149 L381,148 L382,145 L384,141 L384,139 L385,136 L385,135 L385,134 L388,130 L391,125 L391,124 L392,123 L393,122 L394,121 L396,118 L398,115 L399,114 L400,112 L403,109 L406,105 L406,102 L407,99 L404,101 L401,103 L395,107 L390,110 L385,114 L380,117 L379,117 L372,118 L366,118 L364,118 L363,118 L362,122 L362,125 L359,137 L356,149 L364,153 L373,156" id="Shape" fill="#318395"></path>
                    <path d="M456,149 L486,107 L495,83 L504,58 L522,57 L540,56 L563,54 L586,52 L585,51 L585,50 L581,49 L577,48 L575,47 L573,45 L569,44 L565,43 L562,43 L559,42 L555,41 L551,40 L550,37 L550,34 L551,30 L553,26 L555,25 L557,23 L560,22 L564,20 L567,20 L570,19 L571,19 L572,19 L567,12 L563,4 L555,6 L548,8 L547,9 L546,9 L535,29 L524,49 L517,50 L510,51 L496,79 L482,106 L469,128 L456,149" id="Shape" fill="#527A94"></path>
                    <path d="M332,111 L362,125 L362,122 L363,118 L364,118 L366,118 L372,118 L379,117 L360,109 L341,100 L339,99 L337,97 L335,96 L333,95 L331,95 L329,94 L328,95 L327,95 L329,103 L332,111" id="Shape" fill="#105D6D"></path>
                    <path d="M489,147 L498,141 L493,138 L488,134 L487,139 L486,144 L487,146 L489,147" id="Shape" fill="#BBD2DA"></path>
                    <path d="M392,143 L395,138 L395,135 L396,132 L395,127 L394,121 L393,122 L392,123 L391,124 L391,125 L388,130 L385,134 L385,135 L385,136 L384,139 L384,141 L386,141 L388,140 L389,140 L390,140 L391,142 L392,143" id="Shape" fill="#527A94"></path>
                    <path d="M938,129 L935,121 L931,117 L927,112 L922,108 L917,104 L912,101 L907,97 L903,95 L899,92 L899,93 L899,94 L899,95 L900,95 L898,101 L896,107 L894,107 L893,107 L891,108 L890,109 L893,112 L896,114 L899,115 L902,116 L899,114 L896,112 L903,112 L910,111 L915,114 L921,117 L926,121 L931,125 L934,127 L938,129" id="Shape" fill="#172A32"></path>
                    <path d="M548,116 L555,108 L553,101 L552,94 L550,87 L548,80 L542,80 L537,80 L530,78 L524,76 L521,80 L519,83 L518,89 L517,94 L520,98 L524,101 L529,100 L535,99 L539,102 L544,105 L546,111 L548,116" id="Shape" fill="#BBD2DA"></path>
                    <path d="M893,107 L896,107 L898,101 L900,95 L899,95 L899,94 L899,93 L899,92 L898,92 L897,91 L896,93 L896,94 L895,93 L894,92 L893,92 L865,94 L838,96 L829,86 L821,76 L857,92 L893,107" id="Shape" fill="#527A94"></path>
                    <path d="M341,100 L371,52 L384,50 L398,48 L393,47 L389,46 L386,45 L383,43 L382,43 L374,42 L366,41 L372,39 L378,36 L379,35 L381,34 L358,53 L335,71 L331,83 L327,95 L328,95 L329,94 L333,96 L337,97 L339,99 L341,100" id="Shape" fill="#172A32"></path>
                    <path d="M337,97 L329,94 L331,95 L333,95 L335,96 L337,97" id="Shape" fill="#334E5F"></path>
                    <path d="M896,94 L897,91 L895,88 L894,85 L890,82 L887,79 L885,79 L884,78 L880,78 L877,78 L874,80 L872,82 L872,85 L873,88 L877,89 L882,89 L884,89 L887,89 L888,90 L889,90 L891,91 L893,92 L894,92 L895,93 L896,94" id="Shape" fill="#334E5F"></path>
                    <path d="M878,91 L889,90 L888,90 L887,89 L884,89 L882,89 L877,89 L873,88 L872,85 L872,82 L874,80 L877,78 L880,78 L884,78 L885,79 L887,79 L885,78 L884,76 L878,74 L872,71 L864,70 L857,68 L853,68 L850,68 L852,75 L855,81 L860,83 L866,85 L869,87 L873,89 L875,90 L878,91" id="Shape" fill="#172A32"></path>
                    <path d="M424,85 L424,86 L439,70 L455,53 L452,56 L449,58 L445,62 L441,66 L435,69 L430,72 L427,78 L424,84 L424,85" id="Shape" fill="#318395"></path>
                    <path d="M837,73 L841,66 L839,60 L837,53 L832,49 L828,44 L823,40 L819,36 L813,33 L808,30 L807,30 L804,31 L802,31 L804,34 L806,36 L808,38 L810,40 L813,42 L816,43 L817,45 L818,46 L821,50 L824,53 L827,58 L831,63 L834,68 L837,73" id="Shape" fill="#105D6D"></path>
                    <path d="M382,43 L379,40 L379,39 L379,38 L378,37 L378,36 L372,39 L366,41 L374,42 L382,43" id="Shape" fill="#334E5F"></path>
                    <path d="M586,52 L619,38 L608,34 L597,30 L598,32 L600,34 L602,37 L604,39 L604,41 L605,43 L607,46 L610,48 L612,49 L615,50 L610,51 L606,51 L603,51 L600,50 L596,50 L593,50 L591,50 L589,50 L587,50 L585,50 L585,51 L586,52" id="Shape" fill="#172A32"></path>
                    <path d="M510,50 L510,51 L517,50 L524,49 L535,29 L546,9 L541,12 L536,14 L531,18 L526,21 L521,26 L517,30 L513,35 L509,39 L511,44 L513,48 L511,49 L510,50" id="Shape" fill="#105D6D"></path>
                    <path d="M600,50 L606,51 L610,51 L615,50 L612,49 L610,48 L607,46 L605,43 L604,41 L604,39 L602,37 L600,34 L598,32 L597,30 L593,29 L590,27 L589,27 L589,26 L584,24 L579,21 L578,21 L577,20 L574,20 L572,19 L571,19 L570,19 L567,20 L564,20 L560,22 L557,23 L555,25 L553,26 L551,30 L550,34 L550,37 L551,40 L555,41 L559,42 L562,43 L565,43 L569,44 L573,45 L575,47 L577,48 L581,49 L585,50 L587,50 L589,50 L591,50 L593,50 L596,50 L600,50" id="Shape" fill="#000000"></path>
                    <path d="M417,49 L432,49 L432,47 L432,44 L424,43 L417,41 L410,39 L404,37 L399,37 L394,37 L396,38 L398,38 L399,39 L400,39 L406,40 L413,41 L414,42 L415,42 L418,45 L421,48 L419,48 L418,48 L417,48 L417,49" id="Shape" fill="#172A32"></path>
                    <path d="M403,48 L417,48 L418,48 L419,48 L421,48 L418,45 L415,42 L414,42 L413,41 L406,40 L400,39 L399,39 L398,38 L396,38 L394,37 L391,36 L388,34 L384,34 L381,34 L379,35 L378,36 L378,37 L379,38 L379,39 L379,40 L380,42 L382,43 L383,43 L386,45 L389,46 L393,47 L398,48 L400,48 L403,48" id="Shape" fill="#105D6D"></path>
                    <path d="M816,45 L818,46 L817,45 L816,43 L813,42 L810,40 L808,38 L806,36 L804,34 L802,31 L804,31 L807,30 L804,28 L801,26 L793,25 L786,24 L783,24 L781,23 L783,25 L786,26 L787,26 L789,26 L792,30 L796,33 L796,35 L797,36 L799,40 L802,44 L803,45 L804,45 L804,44 L809,45 L815,45 L816,45" id="Shape" fill="#172A32"></path>
                    <path d="M619,38 L620,30 L621,31 L623,31 L626,32 L630,33 L609,17 L589,0 L576,2 L563,4 L567,12 L572,19 L574,20 L577,20 L578,21 L579,21 L584,24 L589,26 L589,27 L590,27 L593,29 L597,30 L608,34 L619,38" id="Shape" fill="#318395"></path>
                    <path d="M652,28 L664,25 L658,26 L653,26 L653,25 L654,24 L655,23 L658,19 L662,14 L663,13 L666,9 L670,5 L671,4 L671,3 L672,1 L669,4 L666,6 L661,11 L657,15 L651,18 L646,21 L647,24 L648,27 L650,28 L652,28" id="Shape" fill="#172A32"></path>
                </g>
            </g>
        </g>
    </g>
</svg>