<?xml version="1.0" encoding="UTF-8" standalone="no"?>
<svg width="1656px" height="1656px" viewBox="0 0 1656 1656" version="1.1" xmlns="http://www.w3.org/2000/svg" xmlns:xlink="http://www.w3.org/1999/xlink" xmlns:sketch="http://www.bohemiancoding.com/sketch/ns">
    <!-- Generator: Sketch 3.3.3 (12081) - http://www.bohemiancoding.com/sketch -->
    <title>asanocorp-0-4-0-grey</title>
    <desc>Created with Sketch.</desc>
    <defs></defs>
    <g id="Page-3" stroke="none" stroke-width="1" fill="none" fill-rule="evenodd" sketch:type="MSPage">
        <g id="Artboard" sketch:type="MSArtboardGroup">
            <g id="asanocorp-0-4-0-grey" sketch:type="MSLayerGroup">
                <rect id="background" fill="#000000" sketch:type="MSShapeGroup" x="0" y="0" width="1656" height="1656"></rect>
                <g id="asano-grey" transform="translate(246.000000, 159.000000)" fill="#BBD2DA" sketch:type="MSShapeGroup">
                    <path d="M642,1497 L658,1497 L666,1497 L675,1497 L676,1497 L678,1497 L715,1494 L753,1490 L754,1490 L755,1490 L757,1490 L759,1490 L765,1490 L772,1489 L773,1489 L775,1489 L782,1489 L789,1489 L790,1489 L792,1488 L798,1487 L804,1486 L805,1486 L807,1486 L809,1486 L811,1486 L866,1478 L921,1469 L923,1469 L926,1469 L927,1469 L928,1469 L933,1471 L939,1473 L940,1473 L941,1473 L942,1474 L944,1475 L969,1486 L994,1497 L1033,1497 L1072,1497 L1089,1497 L1106,1497 L1082,1486 L1059,1474 L1039,1461 L1019,1447 L996,1439 L973,1430 L927,1429 L882,1428 L879,1429 L876,1430 L874,1430 L872,1430 L871,1431 L870,1431 L811,1432 L753,1433 L755,1431 L758,1429 L753,1415 L748,1400 L714,1416 L681,1432 L678,1432 L676,1432 L676,1434 L677,1435 L678,1435 L673,1436 L668,1436 L663,1436 L659,1435 L655,1435 L652,1435 L651,1435 L650,1435 L647,1436 L644,1436 L588,1431 L532,1425 L505,1422 L479,1418 L445,1417 L411,1415 L409,1415 L408,1414 L375,1412 L342,1409 L312,1407 L282,1405 L254,1401 L226,1396 L207,1395 L189,1393 L183,1415 L178,1436 L203,1433 L229,1430 L255,1439 L281,1448 L310,1454 L339,1459 L372,1466 L406,1472 L407,1473 L408,1473 L413,1474 L418,1475 L450,1478 L483,1481 L535,1485 L588,1488 L593,1488 L599,1487 L607,1488 L616,1488 L624,1489 L632,1489 L638,1490 L645,1491 L645,1492 L646,1493 L644,1495 L642,1497" id="Shape"></path>
                    <path d="M918,1414 L917,1406 L911,1403 L906,1400 L907,1404 L909,1407 L913,1411 L918,1414" id="Shape"></path>
                    <path d="M656,1165 L662,1144 L631,1159 L600,1173 L628,1169 L656,1165" id="Shape"></path>
                    <path d="M842,958 L844,959 L846,955 L849,950 L856,939 L864,927 L864,926 L859,926 L855,926 L854,927 L853,927 L852,928 L847,930 L842,931 L841,932 L840,933 L838,938 L836,943 L835,945 L835,946 L837,950 L840,954 L840,956 L841,957 L841,958 L842,958" id="Shape"></path>
                    <path d="M954,850 L994,830 L1012,817 L1031,804 L1022,782 L1014,759 L1032,748 L1051,737 L1059,711 L1068,684 L1060,655 L1053,625 L1052,623 L1051,620 L1050,620 L1055,605 L1060,589 L1066,566 L1072,542 L1079,524 L1087,505 L1087,484 L1087,462 L1068,447 L1050,431 L1037,410 L1025,388 L1032,367 L1039,345 L1026,323 L1013,301 L997,299 L981,296 L977,274 L973,252 L966,232 L959,212 L935,201 L912,190 L894,174 L876,158 L854,145 L833,132 L809,123 L786,113 L767,105 L749,96 L729,89 L710,82 L685,73 L661,63 L639,57 L618,51 L591,49 L564,47 L550,64 L536,81 L531,103 L527,125 L530,150 L533,175 L520,160 L507,144 L494,134 L481,124 L467,144 L454,164 L437,180 L421,195 L451,215 L482,235 L539,242 L597,248 L600,248 L604,247 L606,247 L609,246 L633,258 L657,270 L667,293 L678,316 L691,338 L705,359 L716,381 L727,402 L744,420 L762,437 L777,457 L792,477 L787,499 L783,521 L796,537 L810,552 L830,564 L851,576 L860,601 L869,626 L872,657 L876,687 L881,716 L886,744 L895,769 L904,794 L917,831 L930,867 L942,859 L954,850" id="Shape"></path>
                    <path d="M737,603 L748,569 L740,549 L733,528 L707,534 L682,540 L662,554 L642,568 L633,587 L625,606 L645,607 L665,607 L701,605 L737,603" id="Shape"></path>
                    <path d="M375,597 L386,593 L390,589 L395,585 L393,579 L392,572 L388,568 L384,563 L376,564 L369,565 L365,571 L362,576 L364,582 L367,588 L371,593 L375,597" id="Shape"></path>
                    <path d="M117,565 L123,527 L103,513 L84,499 L73,515 L62,531 L64,555 L67,579 L92,572 L117,565" id="Shape"></path>
                    <path d="M1103,553 L1113,548 L1116,543 L1120,538 L1117,533 L1115,527 L1111,532 L1108,537 L1104,542 L1101,547 L1102,550 L1103,553" id="Shape"></path>
                    <path d="M183,358 L149,332 L135,350 L121,367 L152,363 L183,358" id="Shape"></path>
                    <path d="M213,321 L195,301 L185,316 L176,331 L194,326 L213,321" id="Shape"></path>
                    <path d="M418,140 L427,134 L422,131 L417,127 L416,132 L415,137 L416,139 L418,140" id="Shape"></path>
                    <path d="M477,109 L484,101 L482,94 L481,87 L479,80 L477,73 L471,73 L466,73 L459,71 L453,69 L450,73 L448,76 L447,82 L446,87 L449,91 L453,94 L458,93 L464,92 L468,95 L473,98 L475,104 L477,109" id="Shape"></path>
                    <path d="M197,1497 L211,1497 L211,1496 L210,1491 L209,1486 L208,1484 L207,1482 L205,1479 L203,1475 L202,1473 L201,1470 L201,1465 L202,1460 L202,1458 L203,1455 L207,1456 L212,1457 L214,1458 L217,1458 L221,1460 L225,1462 L228,1462 L231,1462 L231,1460 L231,1457 L232,1455 L233,1453 L236,1451 L240,1449 L237,1448 L235,1447 L230,1446 L226,1445 L224,1445 L222,1445 L218,1444 L214,1442 L212,1441 L210,1440 L205,1439 L200,1438 L199,1436 L198,1434 L202,1433 L206,1431 L208,1432 L211,1432 L216,1433 L221,1433 L224,1434 L227,1434 L231,1436 L235,1437 L237,1438 L240,1438 L244,1440 L248,1441 L250,1442 L253,1442 L257,1444 L262,1445 L264,1446 L267,1446 L271,1448 L275,1449 L277,1450 L280,1450 L284,1452 L288,1453 L291,1454 L294,1454 L298,1455 L303,1456 L305,1457 L308,1457 L312,1458 L317,1459 L319,1460 L322,1460 L327,1461 L333,1461 L335,1462 L338,1462 L342,1463 L347,1464 L349,1465 L352,1465 L357,1466 L362,1466 L365,1467 L368,1467 L372,1468 L377,1469 L380,1469 L383,1469 L388,1470 L393,1470 L395,1471 L398,1471 L403,1472 L408,1473 L410,1474 L413,1474 L417,1476 L421,1477 L423,1478 L426,1478 L431,1479 L436,1479 L439,1480 L442,1480 L447,1481 L452,1481 L450,1483 L449,1484 L444,1485 L440,1486 L437,1486 L434,1486 L429,1485 L424,1484 L422,1483 L420,1482 L415,1482 L410,1481 L408,1480 L406,1479 L401,1479 L396,1478 L392,1478 L389,1478 L384,1478 L379,1477 L376,1477 L374,1476 L369,1476 L364,1475 L361,1475 L358,1474 L353,1473 L349,1472 L346,1472 L343,1472 L338,1472 L333,1471 L330,1471 L328,1470 L323,1470 L318,1469 L314,1469 L311,1469 L307,1468 L303,1466 L300,1467 L298,1467 L299,1470 L300,1472 L301,1474 L303,1476 L302,1480 L301,1483 L302,1485 L304,1486 L306,1490 L308,1493 L308,1495 L309,1497 L353,1497 L397,1497 L409,1497 L421,1497 L421,1496 L417,1495 L413,1494 L411,1493 L409,1492 L413,1492 L417,1492 L419,1493 L422,1493 L426,1494 L431,1495 L434,1495 L437,1495 L441,1494 L446,1493 L448,1492 L451,1491 L454,1489 L457,1486 L460,1486 L463,1486 L467,1485 L471,1483 L474,1483 L477,1483 L482,1484 L487,1485 L490,1485 L493,1485 L498,1486 L503,1486 L505,1486 L508,1485 L513,1485 L519,1485 L522,1486 L525,1486 L530,1487 L535,1487 L537,1488 L540,1488 L545,1488 L551,1488 L553,1489 L556,1489 L562,1489 L568,1489 L571,1489 L574,1489 L579,1489 L584,1488 L587,1488 L590,1488 L595,1488 L601,1488 L604,1488 L608,1488 L613,1489 L618,1489 L621,1489 L624,1489 L629,1490 L634,1490 L636,1491 L639,1491 L643,1493 L648,1494 L649,1496 L651,1497 L656,1497 L662,1497 L670,1497 L679,1497 L682,1497 L685,1497 L685,1496 L688,1494 L691,1491 L694,1491 L698,1491 L703,1491 L708,1491 L711,1491 L715,1491 L720,1491 L726,1491 L729,1491 L732,1491 L737,1491 L743,1491 L746,1491 L750,1491 L755,1491 L760,1491 L763,1491 L766,1490 L771,1490 L776,1489 L779,1489 L782,1488 L787,1488 L792,1488 L795,1488 L799,1488 L804,1488 L810,1488 L810,1489 L811,1489 L809,1492 L807,1494 L808,1495 L810,1496 L814,1495 L818,1494 L820,1494 L823,1494 L828,1494 L834,1494 L837,1494 L841,1494 L845,1494 L850,1493 L853,1493 L857,1493 L862,1493 L867,1492 L869,1492 L872,1491 L877,1491 L883,1491 L886,1492 L889,1492 L893,1492 L897,1492 L900,1492 L904,1492 L908,1493 L912,1493 L914,1493 L917,1493 L921,1494 L926,1494 L929,1495 L932,1495 L937,1495 L943,1495 L944,1496 L946,1497 L952,1497 L958,1497 L958,1496 L955,1494 L953,1491 L951,1490 L949,1489 L945,1487 L941,1485 L939,1484 L938,1482 L934,1480 L931,1478 L929,1477 L927,1476 L922,1476 L917,1475 L914,1476 L912,1477 L908,1479 L905,1481 L903,1480 L901,1479 L902,1477 L903,1474 L905,1473 L907,1472 L911,1471 L916,1469 L918,1469 L921,1468 L926,1469 L931,1469 L933,1470 L935,1471 L938,1473 L942,1475 L944,1477 L946,1478 L949,1480 L953,1482 L955,1483 L957,1484 L961,1486 L965,1487 L967,1488 L969,1489 L973,1491 L977,1493 L979,1494 L981,1495 L981,1496 L982,1497 L1024,1497 L1066,1497 L1109,1497 L1153,1497 L1158,1497 L1164,1497 L1164,1494 L1164,1491 L1164,1490 L1164,1488 L1164,1481 L1164,1473 L1164,1472 L1164,1470 L1159,1468 L1154,1466 L1152,1466 L1151,1466 L1145,1465 L1140,1463 L1138,1463 L1137,1463 L1131,1462 L1125,1460 L1123,1460 L1122,1460 L1116,1459 L1111,1457 L1109,1457 L1108,1457 L1102,1456 L1096,1454 L1094,1454 L1093,1454 L1087,1453 L1081,1452 L1080,1452 L1079,1451 L1072,1451 L1066,1450 L1065,1449 L1065,1448 L1058,1448 L1051,1447 L1050,1446 L1050,1445 L1043,1445 L1037,1444 L1036,1443 L1036,1442 L1030,1441 L1024,1439 L1022,1439 L1021,1439 L1015,1438 L1010,1436 L1008,1436 L1007,1436 L1002,1434 L997,1432 L996,1432 L995,1431 L989,1430 L983,1428 L982,1428 L981,1427 L977,1424 L973,1421 L972,1421 L971,1420 L966,1417 L962,1414 L961,1414 L960,1413 L955,1411 L951,1408 L950,1408 L949,1407 L944,1406 L939,1405 L938,1405 L937,1404 L932,1402 L927,1399 L926,1399 L925,1398 L920,1396 L915,1394 L913,1394 L912,1394 L905,1394 L899,1394 L897,1394 L896,1394 L892,1397 L888,1400 L888,1401 L889,1402 L893,1405 L898,1407 L899,1408 L900,1408 L904,1412 L908,1415 L907,1416 L907,1417 L902,1420 L898,1422 L897,1423 L896,1423 L890,1425 L885,1427 L884,1428 L883,1428 L877,1430 L872,1431 L870,1431 L869,1431 L862,1432 L856,1432 L855,1433 L854,1433 L847,1434 L840,1434 L838,1434 L837,1434 L831,1435 L825,1436 L823,1436 L822,1436 L815,1437 L808,1437 L806,1437 L805,1437 L798,1437 L791,1437 L789,1437 L788,1437 L781,1438 L775,1438 L774,1438 L773,1437 L770,1435 L767,1432 L767,1431 L768,1430 L773,1429 L779,1427 L780,1427 L782,1427 L788,1427 L795,1427 L796,1427 L798,1427 L799,1424 L801,1420 L800,1420 L799,1419 L799,1417 L800,1414 L801,1414 L803,1414 L810,1414 L817,1413 L818,1413 L820,1413 L815,1411 L811,1408 L810,1409 L809,1409 L803,1411 L798,1413 L796,1413 L795,1413 L796,1410 L797,1407 L797,1406 L798,1405 L800,1401 L803,1396 L803,1395 L803,1393 L803,1389 L803,1384 L802,1383 L802,1382 L803,1379 L805,1375 L804,1374 L804,1373 L801,1368 L798,1362 L796,1357 L794,1351 L793,1350 L793,1349 L791,1344 L790,1338 L789,1337 L789,1336 L785,1332 L782,1328 L781,1328 L780,1327 L775,1325 L770,1323 L768,1323 L767,1323 L761,1320 L756,1317 L753,1312 L751,1307 L750,1306 L750,1305 L748,1300 L747,1294 L746,1293 L746,1292 L743,1288 L740,1283 L739,1283 L738,1282 L735,1278 L733,1273 L732,1272 L732,1271 L731,1264 L730,1256 L729,1253 L729,1250 L729,1252 L729,1253 L729,1259 L729,1265 L729,1267 L729,1268 L730,1274 L732,1280 L732,1282 L732,1283 L734,1288 L736,1293 L736,1295 L736,1296 L736,1303 L737,1310 L736,1317 L735,1323 L735,1325 L735,1326 L732,1326 L729,1326 L728,1327 L727,1327 L726,1332 L726,1337 L725,1338 L725,1339 L722,1344 L720,1348 L719,1349 L719,1350 L715,1355 L711,1359 L707,1363 L703,1366 L702,1367 L701,1367 L697,1370 L693,1373 L692,1374 L691,1374 L685,1376 L680,1378 L679,1378 L678,1377 L671,1378 L665,1378 L663,1378 L662,1378 L657,1377 L653,1376 L658,1374 L663,1371 L664,1371 L666,1371 L672,1371 L679,1370 L680,1370 L682,1370 L687,1368 L692,1365 L692,1364 L693,1363 L691,1362 L689,1361 L688,1362 L687,1362 L680,1364 L673,1365 L667,1367 L662,1369 L660,1369 L659,1369 L657,1366 L655,1363 L656,1363 L657,1362 L661,1360 L665,1357 L663,1357 L662,1357 L656,1358 L650,1359 L649,1360 L648,1360 L644,1365 L641,1370 L638,1375 L636,1380 L635,1381 L635,1382 L633,1388 L632,1393 L631,1394 L631,1395 L628,1400 L625,1404 L624,1405 L623,1405 L618,1408 L614,1410 L613,1411 L613,1412 L607,1415 L602,1418 L597,1421 L592,1423 L590,1423 L589,1423 L582,1423 L576,1422 L575,1422 L574,1421 L572,1419 L570,1416 L571,1416 L573,1416 L579,1416 L586,1415 L587,1415 L588,1414 L595,1413 L602,1411 L596,1410 L590,1408 L588,1408 L587,1408 L580,1409 L574,1409 L573,1410 L572,1410 L567,1413 L562,1415 L561,1416 L561,1417 L555,1416 L549,1415 L548,1416 L547,1416 L540,1416 L534,1416 L527,1415 L521,1414 L519,1414 L518,1414 L511,1414 L504,1414 L502,1414 L501,1414 L494,1413 L488,1412 L487,1413 L486,1413 L479,1413 L472,1413 L470,1413 L469,1413 L470,1412 L472,1411 L475,1409 L479,1407 L478,1407 L477,1406 L470,1406 L464,1405 L462,1405 L461,1405 L454,1406 L447,1406 L446,1407 L445,1407 L438,1408 L432,1408 L430,1408 L429,1408 L421,1408 L414,1408 L407,1408 L400,1407 L398,1407 L397,1407 L390,1407 L383,1407 L381,1407 L380,1407 L373,1407 L366,1406 L364,1406 L363,1406 L356,1406 L350,1405 L348,1405 L347,1405 L339,1405 L331,1404 L324,1403 L318,1402 L317,1402 L316,1401 L310,1400 L304,1399 L302,1399 L301,1399 L295,1398 L289,1396 L288,1396 L287,1395 L281,1394 L275,1393 L273,1393 L272,1393 L264,1392 L257,1391 L251,1390 L245,1388 L243,1388 L242,1388 L236,1387 L230,1386 L229,1386 L228,1385 L221,1384 L215,1383 L214,1383 L213,1382 L208,1380 L203,1378 L201,1378 L200,1378 L194,1375 L189,1372 L185,1368 L182,1364 L181,1364 L180,1363 L177,1359 L174,1355 L173,1354 L173,1353 L169,1349 L166,1345 L164,1345 L163,1345 L162,1349 L161,1353 L160,1354 L160,1355 L158,1360 L157,1365 L160,1369 L164,1373 L165,1374 L166,1374 L168,1379 L171,1383 L172,1384 L173,1384 L174,1390 L176,1396 L176,1398 L176,1399 L174,1403 L172,1407 L172,1409 L172,1410 L169,1416 L167,1422 L163,1419 L159,1415 L159,1414 L159,1412 L156,1408 L153,1404 L152,1403 L152,1402 L151,1396 L150,1389 L150,1388 L150,1386 L148,1381 L146,1376 L145,1375 L145,1374 L138,1372 L132,1370 L126,1369 L121,1368 L119,1368 L118,1368 L113,1366 L108,1364 L106,1364 L105,1364 L99,1362 L94,1360 L93,1361 L93,1362 L97,1365 L102,1367 L103,1368 L104,1368 L102,1370 L100,1371 L94,1369 L89,1367 L88,1367 L87,1366 L82,1364 L77,1362 L76,1361 L76,1360 L72,1356 L69,1352 L68,1352 L67,1351 L65,1346 L64,1340 L63,1340 L62,1339 L57,1342 L52,1344 L49,1349 L46,1353 L47,1354 L48,1354 L51,1357 L54,1360 L54,1362 L54,1363 L51,1366 L48,1368 L47,1369 L47,1370 L44,1375 L42,1379 L42,1381 L42,1382 L46,1385 L51,1388 L52,1388 L54,1388 L58,1391 L63,1393 L64,1394 L65,1394 L69,1397 L74,1399 L75,1400 L76,1400 L81,1403 L86,1405 L87,1406 L88,1406 L92,1409 L97,1411 L98,1411 L100,1411 L106,1413 L112,1414 L113,1414 L115,1414 L120,1416 L126,1417 L127,1417 L129,1417 L134,1419 L139,1421 L140,1422 L141,1422 L147,1423 L154,1424 L155,1424 L157,1424 L161,1427 L166,1429 L166,1431 L166,1432 L170,1436 L174,1439 L174,1440 L175,1441 L178,1445 L181,1449 L181,1450 L182,1451 L184,1456 L186,1461 L186,1462 L187,1463 L189,1469 L191,1474 L191,1475 L192,1476 L193,1482 L195,1487 L195,1488 L196,1489 L196,1493 L197,1497" id="Shape"></path>
                    <path d="M456,1497 L472,1497 L480,1497 L489,1497 L498,1497 L507,1497 L508,1497 L510,1497 L504,1495 L499,1493 L491,1492 L483,1491 L475,1492 L468,1493 L462,1495 L456,1497" id="Shape"></path>
                    <path d="M843,1425 L859,1426 L866,1425 L874,1424 L880,1421 L886,1418 L886,1417 L886,1415 L878,1417 L871,1418 L863,1419 L856,1420 L847,1420 L839,1420 L832,1419 L826,1417 L822,1420 L818,1422 L825,1422 L832,1422 L837,1424 L843,1425" id="Shape"></path>
                    <path d="M87,1340 L93,1331 L96,1326 L99,1320 L102,1315 L106,1309 L100,1311 L95,1313 L90,1317 L85,1321 L84,1328 L83,1334 L85,1337 L87,1340" id="Shape"></path>
                    <path d="M531,1296 L591,1301 L560,1292 L530,1283 L554,1287 L578,1290 L580,1276 L582,1261 L582,1267 L582,1272 L606,1277 L631,1282 L649,1271 L668,1260 L647,1262 L626,1263 L655,1256 L685,1249 L685,1215 L686,1181 L701,1159 L717,1137 L726,1113 L736,1089 L717,1067 L698,1044 L663,1043 L628,1041 L642,1047 L656,1052 L626,1049 L596,1045 L572,1037 L549,1029 L555,1030 L562,1031 L569,1014 L576,996 L540,989 L504,981 L492,1010 L480,1038 L478,1059 L477,1080 L481,1113 L486,1146 L471,1149 L456,1151 L447,1148 L439,1145 L434,1144 L430,1143 L413,1126 L397,1109 L388,1113 L379,1116 L376,1131 L374,1146 L391,1170 L409,1194 L431,1216 L453,1237 L470,1248 L488,1259 L493,1281 L498,1302 L514,1299 L531,1296" id="Shape"></path>
                    <path d="M626,1306 L638,1303 L642,1299 L647,1295 L651,1291 L656,1286 L661,1283 L667,1280 L674,1281 L682,1281 L682,1277 L683,1273 L676,1275 L669,1276 L661,1278 L654,1279 L649,1283 L645,1287 L640,1292 L636,1296 L631,1300 L627,1304 L626,1305 L626,1306" id="Shape"></path>
                    <path d="M735,1154 L745,1179 L750,1148 L756,1117 L733,1135 L710,1152 L722,1153 L735,1154" id="Shape"></path>
                    <path d="M380,1105 L389,1103 L383,1101 L377,1098 L369,1097 L362,1095 L359,1097 L357,1099 L364,1101 L371,1103 L375,1104 L380,1105" id="Shape"></path>
                    <path d="M843,983 L855,964 L858,944 L862,924 L842,946 L822,967 L811,998 L801,1029 L822,1006 L843,983" id="Shape"></path>
                    <path d="M673,1011 L699,954 L680,934 L662,914 L646,918 L630,921 L656,937 L682,952 L673,955 L665,958 L641,955 L618,952 L589,939 L561,926 L542,932 L523,937 L554,949 L586,961 L616,975 L646,988 L653,1001 L660,1013 L666,1012 L673,1011" id="Shape"></path>
                    <path d="M378,962 L391,960 L398,959 L405,957 L412,955 L419,953 L425,951 L432,949 L437,946 L443,942 L449,940 L455,937 L458,935 L461,932 L453,933 L446,933 L440,936 L434,938 L428,941 L422,944 L415,946 L408,947 L402,950 L396,952 L389,955 L383,957 L380,960 L378,962" id="Shape"></path>
                    <path d="M622,925 L626,902 L638,892 L651,882 L629,861 L607,839 L593,810 L579,780 L553,783 L527,785 L530,796 L534,807 L542,826 L551,845 L527,837 L504,829 L509,859 L514,888 L540,887 L566,885 L587,907 L608,928 L615,927 L622,925" id="Shape"></path>
                    <path d="M953,874 L1005,843 L1029,825 L1053,806 L1048,792 L1043,777 L1064,760 L1085,742 L1078,723 L1072,704 L1067,672 L1062,639 L1066,627 L1070,614 L1069,602 L1069,590 L1082,574 L1095,557 L1091,565 L1088,573 L1103,586 L1119,599 L1125,572 L1132,545 L1128,521 L1125,497 L1106,473 L1087,448 L1090,441 L1093,433 L1070,412 L1048,391 L1065,396 L1082,400 L1069,374 L1056,347 L1052,313 L1048,278 L1032,252 L1016,225 L990,208 L965,191 L955,194 L945,196 L919,179 L893,161 L870,141 L847,120 L829,106 L811,91 L781,82 L752,73 L735,47 L718,20 L705,24 L692,27 L708,48 L724,68 L718,71 L712,73 L681,60 L651,47 L628,42 L605,36 L577,26 L549,15 L517,8 L485,0 L469,21 L454,42 L435,67 L416,91 L399,118 L383,145 L368,132 L354,119 L372,94 L391,69 L378,66 L366,63 L343,84 L320,104 L316,117 L312,129 L284,144 L256,158 L254,169 L252,179 L230,201 L209,223 L195,247 L182,271 L155,286 L128,300 L116,326 L105,352 L94,364 L83,375 L83,377 L84,379 L72,408 L61,437 L42,461 L24,485 L13,496 L3,507 L3,527 L3,546 L3,578 L4,610 L14,594 L24,577 L37,561 L50,544 L45,579 L41,614 L20,634 L0,654 L25,673 L50,691 L71,704 L92,716 L84,735 L76,753 L79,789 L82,824 L87,856 L93,888 L121,902 L150,916 L158,899 L167,882 L141,865 L116,848 L106,814 L97,780 L102,743 L108,706 L100,696 L92,685 L103,682 L115,679 L136,657 L157,634 L167,601 L178,568 L181,529 L185,490 L196,458 L207,425 L219,396 L231,366 L248,340 L266,314 L287,292 L309,270 L335,253 L362,236 L392,242 L423,248 L442,249 L462,250 L502,253 L542,255 L570,271 L598,286 L620,307 L643,328 L651,358 L660,388 L680,411 L701,434 L714,461 L727,487 L698,495 L669,502 L644,521 L619,539 L602,564 L586,589 L592,618 L599,647 L615,675 L631,702 L643,709 L655,715 L672,719 L689,722 L710,730 L731,737 L716,723 L701,708 L728,716 L756,724 L794,727 L832,729 L841,729 L850,728 L858,759 L867,790 L858,824 L849,857 L878,858 L908,859 L913,866 L918,872 L908,896 L898,919 L925,897 L953,874" id="Shape"></path>
                    <path d="M914,890 L917,882 L914,877 L911,871 L908,875 L906,878 L909,884 L912,889 L913,890 L914,890" id="Shape"></path>
                    <path d="M456,778 L466,773 L471,770 L477,767 L470,767 L464,766 L460,771 L456,775 L456,777 L456,778" id="Shape"></path>
                    <path d="M670,749 L681,745 L685,741 L690,737 L687,736 L684,735 L679,739 L674,742 L672,746 L670,749" id="Shape"></path>
                    <path d="M37,723 L38,717 L34,712 L31,707 L27,702 L24,696 L21,691 L18,685 L15,683 L12,680 L12,687 L13,693 L16,698 L20,703 L23,709 L27,714 L31,718 L36,722 L36,723 L37,723" id="Shape"></path>
                    <path d="M456,625 L470,570 L479,572 L488,573 L466,552 L445,531 L419,517 L393,502 L406,510 L420,518 L389,523 L358,527 L330,543 L303,559 L323,551 L343,542 L343,551 L344,560 L359,585 L374,609 L405,603 L437,597 L429,603 L421,608 L417,624 L413,639 L434,632 L456,625" id="Shape"></path>
                    <path d="M90,352 L95,342 L96,335 L98,328 L100,322 L103,315 L97,314 L92,313 L90,320 L88,326 L87,335 L87,343 L88,348 L90,352" id="Shape"></path>
                </g>
            </g>
        </g>
    </g>
</svg>